<svg width="1607" height="1875" xmlns="http://www.w3.org/2000/svg" xmlns:xlink="http://www.w3.org/1999/xlink" xml:space="preserve" overflow="hidden"><defs><clipPath id="clip0"><rect x="102" y="88" width="1607" height="1875"/></clipPath></defs><g clip-path="url(#clip0)" transform="translate(-102 -88)"><rect x="102" y="88" width="1607" height="1875" fill="#FFFFFF"/><path d="M611 1235.5C611 1216.45 626.446 1201 645.5 1201L810.499 1201C829.553 1201 845 1216.45 845 1235.5L845 1373.5C845 1392.55 829.553 1408 810.499 1408L645.5 1408C626.446 1408 611 1392.55 611 1373.5Z" fill="#AFABAB" fill-rule="evenodd"/><rect x="420.5" y="217.5" width="974" height="1169" stroke="#A6A6A6" stroke-width="4.58333" stroke-miterlimit="8" fill="#A6A6A6" fill-opacity="0.2"/><rect x="420.5" y="373.5" width="156" height="260" stroke="#767171" stroke-width="4.58333" stroke-miterlimit="8" fill="#00B050"/><path d="M487 406C487 391.641 498.641 380 513 380 527.359 380 539 391.641 539 406 539 420.359 527.359 432 513 432 498.641 432 487 420.359 487 406Z" fill="#AFABAB" fill-rule="evenodd"/><path d="M487 470C487 455.641 498.641 444 513 444 527.359 444 539 455.641 539 470 539 484.359 527.359 496 513 496 498.641 496 487 484.359 487 470Z" fill="#AFABAB" fill-rule="evenodd"/><path d="M487 533C487 518.641 498.641 507 513 507 527.359 507 539 518.641 539 533 539 547.359 527.359 559 513 559 498.641 559 487 547.359 487 533Z" fill="#AFABAB" fill-rule="evenodd"/><path d="M487 599C487 584.641 498.641 573 513 573 527.359 573 539 584.641 539 599 539 613.359 527.359 625 513 625 498.641 625 487 613.359 487 599Z" fill="#AFABAB" fill-rule="evenodd"/><rect x="420.5" y="373.5" width="32" height="65" stroke="#767171" stroke-width="4.58333" stroke-miterlimit="8" fill="#00B050"/><rect x="420.5" y="568.5" width="32" height="64.9999" stroke="#767171" stroke-width="4.58333" stroke-miterlimit="8" fill="#00B050"/><rect x="420.5" y="503.5" width="32" height="65" stroke="#767171" stroke-width="4.58333" stroke-miterlimit="8" fill="#00B050"/><rect x="420.5" y="438.5" width="32" height="65" stroke="#767171" stroke-width="4.58333" stroke-miterlimit="8" fill="#00B050"/><path d="M0 0 36.7475 36.7475" stroke="#BFBFBF" stroke-width="9.16667" stroke-miterlimit="8" fill="none" fill-rule="evenodd" transform="matrix(1 0 0 -1 495.5 425.247)"/><path d="M495.5 451.5 532.247 488.247" stroke="#BFBFBF" stroke-width="9.16667" stroke-miterlimit="8" fill="none" fill-rule="evenodd"/><path d="M487.5 533.5 539.468 533.5" stroke="#BFBFBF" stroke-width="9.16667" stroke-miterlimit="8" fill="none" fill-rule="evenodd"/><path d="M0 0 0.000360892 51.9685" stroke="#BFBFBF" stroke-width="9.16667" stroke-miterlimit="8" fill="none" fill-rule="evenodd" transform="matrix(1 0 0 -1 513.5 625.468)"/><rect x="420.5" y="802.5" width="156" height="260" stroke="#767171" stroke-width="4.58333" stroke-miterlimit="8" fill="#00B050"/><path d="M487 835C487 820.64 498.641 809 513 809 527.359 809 539 820.64 539 835 539 849.359 527.359 861 513 861 498.641 861 487 849.359 487 835Z" fill="#AFABAB" fill-rule="evenodd"/><path d="M487 898C487 883.641 498.641 872 513 872 527.359 872 539 883.641 539 898 539 912.359 527.359 924 513 924 498.641 924 487 912.359 487 898Z" fill="#AFABAB" fill-rule="evenodd"/><path d="M487 962C487 947.641 498.641 936 513 936 527.359 936 539 947.641 539 962 539 976.359 527.359 988 513 988 498.641 988 487 976.359 487 962Z" fill="#AFABAB" fill-rule="evenodd"/><path d="M487 1028C487 1013.64 498.641 1002 513 1002 527.359 1002 539 1013.64 539 1028 539 1042.36 527.359 1054 513 1054 498.641 1054 487 1042.36 487 1028Z" fill="#AFABAB" fill-rule="evenodd"/><rect x="420.5" y="802.5" width="32" height="64.9999" stroke="#767171" stroke-width="4.58333" stroke-miterlimit="8" fill="#00B050"/><rect x="420.5" y="997.5" width="32" height="64.9999" stroke="#767171" stroke-width="4.58333" stroke-miterlimit="8" fill="#00B050"/><rect x="420.5" y="932.5" width="32" height="65" stroke="#767171" stroke-width="4.58333" stroke-miterlimit="8" fill="#00B050"/><rect x="420.5" y="867.5" width="32" height="65" stroke="#767171" stroke-width="4.58333" stroke-miterlimit="8" fill="#00B050"/><path d="M0 0 36.7475 36.7475" stroke="#BFBFBF" stroke-width="9.16667" stroke-miterlimit="8" fill="none" fill-rule="evenodd" transform="matrix(1 0 0 -1 495.5 853.247)"/><path d="M495.5 880.5 532.247 917.247" stroke="#BFBFBF" stroke-width="9.16667" stroke-miterlimit="8" fill="none" fill-rule="evenodd"/><path d="M487.5 962.5 539.468 962.5" stroke="#BFBFBF" stroke-width="9.16667" stroke-miterlimit="8" fill="none" fill-rule="evenodd"/><path d="M0 0 0.000360892 51.9685" stroke="#BFBFBF" stroke-width="9.16667" stroke-miterlimit="8" fill="none" fill-rule="evenodd" transform="matrix(1 0 0 -1 513.5 1054.47)"/><path d="M874.5 428C874.5 410.051 889.051 395.5 907 395.5 924.949 395.5 939.5 410.051 939.5 428 939.5 445.949 924.949 460.5 907 460.5 889.051 460.5 874.5 445.949 874.5 428Z" stroke="#767171" stroke-width="4.58333" stroke-miterlimit="8" fill="#767171" fill-rule="evenodd"/><path d="M661.5 427.5C661.5 391.602 690.601 362.5 726.5 362.5 762.399 362.5 791.5 391.602 791.5 427.5 791.5 463.399 762.399 492.5 726.5 492.5 690.601 492.5 661.5 463.399 661.5 427.5Z" stroke="#767171" stroke-width="4.58333" stroke-miterlimit="8" fill="#FF0000" fill-rule="evenodd"/><path d="M1023.5 432.5C1023.5 396.601 1052.6 367.5 1088.5 367.5 1124.4 367.5 1153.5 396.601 1153.5 432.5 1153.5 468.398 1124.4 497.5 1088.5 497.5 1052.6 497.5 1023.5 468.398 1023.5 432.5Z" stroke="#767171" stroke-width="4.58333" stroke-miterlimit="8" fill="#FF0000" fill-rule="evenodd"/><rect x="611" y="744" width="259" height="65" fill="#595959"/><rect x="627" y="755" width="33" height="40.0002" fill="#FFF2CC"/><rect x="692" y="755" width="33" height="40.0002" fill="#FFF2CC"/><rect x="756" y="755" width="33" height="40.0002" fill="#FFF2CC"/><rect x="821" y="757" width="33" height="40.0002" fill="#FFF2CC"/><rect x="822" y="835" width="64.9999" height="130" fill="#595959"/><rect x="833" y="916" width="40.0002" height="33" fill="#FFF2CC"/><rect x="833" y="851" width="40.0002" height="33" fill="#FFF2CC"/><rect x="611" y="836" width="197" height="65" fill="#595959"/><rect x="627" y="847" width="33" height="39.9999" fill="#FFF2CC"/><rect x="692" y="847" width="33" height="39.9999" fill="#FFF2CC"/><rect x="756" y="847" width="33" height="39.9999" fill="#FFF2CC"/><rect x="611" y="900" width="197" height="64.9999" fill="#595959"/><rect x="627" y="911" width="33" height="40.0002" fill="#FFF2CC"/><rect x="692" y="911" width="33" height="40.0002" fill="#FFF2CC"/><rect x="756" y="911" width="33" height="40.0002" fill="#FFF2CC"/><text font-family="Calibri,Calibri_MSFontService,sans-serif" font-weight="400" font-size="55" transform="matrix(1 0 0 1 1417.34 424)">A1</text><text font-family="Calibri,Calibri_MSFontService,sans-serif" font-weight="400" font-size="55" transform="matrix(1 0 0 1 1415.51 488)">GND</text><text font-family="Calibri,Calibri_MSFontService,sans-serif" font-weight="400" font-size="55" transform="matrix(1 0 0 1 1416.39 552)">A2</text><text font-family="Calibri,Calibri_MSFontService,sans-serif" font-weight="400" font-size="55" transform="matrix(1 0 0 1 1414.56 618)">GND</text><text font-family="Calibri,Calibri_MSFontService,sans-serif" font-weight="400" font-size="55" transform="matrix(1 0 0 1 1424.73 717)">A3</text><text font-family="Calibri,Calibri_MSFontService,sans-serif" font-weight="400" font-size="55" transform="matrix(1 0 0 1 1422.9 780)">GND</text><text font-family="Calibri,Calibri_MSFontService,sans-serif" font-weight="400" font-size="55" transform="matrix(1 0 0 1 1423.78 844)">A4</text><text font-family="Calibri,Calibri_MSFontService,sans-serif" font-weight="400" font-size="55" transform="matrix(1 0 0 1 1421.95 910)">GND</text><text font-family="Calibri,Calibri_MSFontService,sans-serif" font-weight="400" font-size="55" transform="matrix(1 0 0 1 1424.22 1001)">A5</text><text font-family="Calibri,Calibri_MSFontService,sans-serif" font-weight="400" font-size="55" transform="matrix(1 0 0 1 1422.39 1065)">GND</text><text font-family="Calibri,Calibri_MSFontService,sans-serif" font-weight="400" font-size="55" transform="matrix(1 0 0 1 1423.27 1129)">A6</text><text font-family="Calibri,Calibri_MSFontService,sans-serif" font-weight="400" font-size="55" transform="matrix(1 0 0 1 1421.44 1195)">GND</text><text font-family="Calibri,Calibri_MSFontService,sans-serif" font-weight="400" font-size="55" transform="matrix(1 0 0 1 319.446 424)">M1</text><text font-family="Calibri,Calibri_MSFontService,sans-serif" font-weight="400" font-size="55" transform="matrix(1 0 0 1 319.446 488)">M1</text><text font-family="Calibri,Calibri_MSFontService,sans-serif" font-weight="400" font-size="55" transform="matrix(1 0 0 1 319.446 552)">M2</text><text font-family="Calibri,Calibri_MSFontService,sans-serif" font-weight="400" font-size="55" transform="matrix(1 0 0 1 319.446 618)">M2</text><text font-family="Calibri,Calibri_MSFontService,sans-serif" font-weight="400" font-size="55" transform="matrix(1 0 0 1 225.484 848)">RS485B</text><text font-family="Calibri,Calibri_MSFontService,sans-serif" font-weight="400" font-size="55" transform="matrix(1 0 0 1 223.17 911)">RS485A</text><text font-family="Calibri,Calibri_MSFontService,sans-serif" font-weight="400" font-size="55" transform="matrix(1 0 0 1 225.484 975)">RS485B</text><text font-family="Calibri,Calibri_MSFontService,sans-serif" font-weight="400" font-size="55" transform="matrix(1 0 0 1 223.17 1041)">RS485A</text><text font-family="Calibri,Calibri_MSFontService,sans-serif" font-weight="400" font-size="55" transform="matrix(1 0 0 1 257.006 697)">ftPixel</text><text font-family="Calibri,Calibri_MSFontService,sans-serif" font-weight="400" font-size="55" transform="matrix(1 0 0 1 291.696 763)">GND</text><text font-family="Calibri,Calibri_MSFontService,sans-serif" font-weight="400" font-size="55" transform="matrix(1 0 0 1 286.847 1119)">GND</text><text font-family="Calibri,Calibri_MSFontService,sans-serif" font-weight="400" font-size="55" transform="matrix(1 0 0 1 332.549 1185)">9V</text><text font-family="Calibri,Calibri_MSFontService,sans-serif" font-weight="400" font-size="55" transform="matrix(1 0 0 1 840.557 373)">RESET</text><text font-family="Calibri,Calibri_MSFontService,sans-serif" font-weight="400" font-size="55" transform="matrix(1 0 0 1 1032.88 449)">LED1</text><text font-family="Calibri,Calibri_MSFontService,sans-serif" font-weight="400" font-size="55" transform="matrix(1 0 0 1 667.877 447)">LED2</text><text font-family="Calibri,Calibri_MSFontService,sans-serif" font-weight="400" font-size="55" transform="matrix(1 0 0 1 642.686 727)">Extension</text><text font-family="Calibri,Calibri_MSFontService,sans-serif" font-weight="400" font-size="55" transform="matrix(1 0 0 1 649.808 1014)">Servo</text><text font-family="Calibri,Calibri_MSFontService,sans-serif" font-weight="400" font-size="55" transform="matrix(-1.83697e-16 -1 1 -1.83697e-16 932.578 970)">RS485</text><path d="M1168 581.334C1168 578.388 1170.39 576 1173.33 576L1194.67 576C1197.61 576 1200 578.388 1200 581.334L1200 1155.67C1200 1158.61 1197.61 1161 1194.67 1161L1173.33 1161C1170.39 1161 1168 1158.61 1168 1155.67Z" fill="#D9D9D9" fill-rule="evenodd"/><path d="M1101 581.334C1101 578.388 1103.39 576 1106.33 576L1127.67 576C1130.61 576 1133 578.388 1133 581.334L1133 1155.67C1133 1158.61 1130.61 1161 1127.67 1161L1106.33 1161C1103.39 1161 1101 1158.61 1101 1155.67Z" fill="#D9D9D9" fill-rule="evenodd"/><path d="M1034 581.334C1034 578.388 1036.39 576 1039.33 576L1060.67 576C1063.61 576 1066 578.388 1066 581.334L1066 1155.67C1066 1158.61 1063.61 1161 1060.67 1161L1039.33 1161C1036.39 1161 1034 1158.61 1034 1155.67Z" fill="#D9D9D9" fill-rule="evenodd"/><path d="M967 582.5C967 579.463 969.462 577 972.5 577L994.5 577C997.537 577 1000 579.463 1000 582.5L1000 1156.5C1000 1159.54 997.537 1162 994.5 1162L972.5 1162C969.462 1162 967 1159.54 967 1156.5Z" fill="#D9D9D9" fill-rule="evenodd"/><text font-family="Calibri,Calibri_MSFontService,sans-serif" font-weight="400" font-size="55" transform="matrix(1 0 0 1 684.849 1322)">USB</text><rect x="543" y="1647" width="260" height="65" fill="#595959"/><rect x="559" y="1658" width="33" height="40.0002" fill="#FFF2CC"/><rect x="624" y="1658" width="33" height="40.0002" fill="#FFF2CC"/><rect x="689" y="1658" width="33" height="40.0002" fill="#FFF2CC"/><rect x="754" y="1660" width="33" height="39.9999" fill="#FFF2CC"/><text font-family="Calibri,Calibri_MSFontService,sans-serif" font-weight="400" font-size="55" transform="matrix(-1.83697e-16 -1 1 -1.83697e-16 582.913 1628)">GND</text><text font-family="Calibri,Calibri_MSFontService,sans-serif" font-weight="400" font-size="55" transform="matrix(-1.83697e-16 -1 1 -1.83697e-16 658.552 1625)">SDC</text><text font-family="Calibri,Calibri_MSFontService,sans-serif" font-weight="400" font-size="55" transform="matrix(-1.83697e-16 -1 1 -1.83697e-16 720.654 1624)">SDA</text><text font-family="Calibri,Calibri_MSFontService,sans-serif" font-weight="400" font-size="55" transform="matrix(-1.83697e-16 -1 1 -1.83697e-16 787.362 1625)">3.3V</text><text font-family="Calibri,Calibri_MSFontService,sans-serif" font-weight="400" font-size="55" transform="matrix(1 0 0 1 306.025 1695)">Extension</text><rect x="1079" y="1613" width="197" height="65" fill="#595959"/><rect x="1095" y="1624" width="33" height="41.0002" fill="#FFF2CC"/><rect x="1160" y="1624" width="33" height="41.0002" fill="#FFF2CC"/><rect x="1225" y="1624" width="33" height="41.0002" fill="#FFF2CC"/><rect x="1079" y="1677" width="197" height="65" fill="#595959"/><rect x="1095" y="1689" width="33" height="40.0002" fill="#FFF2CC"/><rect x="1160" y="1689" width="33" height="40.0002" fill="#FFF2CC"/><rect x="1225" y="1689" width="33" height="40.0002" fill="#FFF2CC"/><text font-family="Calibri,Calibri_MSFontService,sans-serif" font-weight="400" font-size="55" transform="matrix(-1.83697e-16 -1 1 -1.83697e-16 1120.69 1601)">GND</text><text font-family="Calibri,Calibri_MSFontService,sans-serif" font-weight="400" font-size="55" transform="matrix(-1.83697e-16 -1 1 -1.83697e-16 1193.79 1598)">5V</text><text font-family="Calibri,Calibri_MSFontService,sans-serif" font-weight="400" font-size="55" transform="matrix(-1.83697e-16 -1 1 -1.83697e-16 1258.43 1599)">Servo2</text><text font-family="Calibri,Calibri_MSFontService,sans-serif" font-weight="400" font-size="55" transform="matrix(-1.83697e-16 -1 1 -1.83697e-16 1122.53 1860)">GND</text><text font-family="Calibri,Calibri_MSFontService,sans-serif" font-weight="400" font-size="55" transform="matrix(-1.83697e-16 -1 1 -1.83697e-16 1195.63 1815)">5V</text><text font-family="Calibri,Calibri_MSFontService,sans-serif" font-weight="400" font-size="55" transform="matrix(-1.83697e-16 -1 1 -1.83697e-16 1260.27 1910)">Servo1</text><text font-family="Calibri,Calibri_MSFontService,sans-serif" font-weight="400" font-size="55" transform="matrix(1 0 0 1 944.561 1689)">Servo</text><rect x="1240.5" y="372.5" width="156" height="260" stroke="#767171" stroke-width="4.58333" stroke-miterlimit="8" fill="#00B050"/><path d="M1328 599C1328 613.359 1316.36 625 1302 625 1287.64 625 1276 613.359 1276 599 1276 584.641 1287.64 573 1302 573 1316.36 573 1328 584.641 1328 599Z" fill="#92D050" fill-rule="evenodd"/><path d="M1328 535C1328 549.359 1316.36 561 1302 561 1287.64 561 1276 549.359 1276 535 1276 520.641 1287.64 509 1302 509 1316.36 509 1328 520.641 1328 535Z" fill="#FF0000" fill-rule="evenodd"/><path d="M1328 472C1328 486.359 1316.36 498 1302 498 1287.64 498 1276 486.359 1276 472 1276 457.641 1287.64 446 1302 446 1316.36 446 1328 457.641 1328 472Z" fill="#92D050" fill-rule="evenodd"/><path d="M1328 405C1328 419.359 1316.36 431 1302 431 1287.64 431 1276 419.359 1276 405 1276 390.641 1287.64 379 1302 379 1316.36 379 1328 390.641 1328 405Z" fill="#FF0000" fill-rule="evenodd"/><rect x="1363.5" y="566.5" width="33" height="64.9999" stroke="#767171" stroke-width="4.58333" stroke-miterlimit="8" fill="#00B050"/><rect x="1363.5" y="372.5" width="33" height="65" stroke="#767171" stroke-width="4.58333" stroke-miterlimit="8" fill="#00B050"/><rect x="1363.5" y="437.5" width="33" height="65" stroke="#767171" stroke-width="4.58333" stroke-miterlimit="8" fill="#00B050"/><rect x="1363.5" y="502.5" width="33" height="65" stroke="#767171" stroke-width="4.58333" stroke-miterlimit="8" fill="#00B050"/><rect x="1236.5" y="664.5" width="156" height="260" stroke="#767171" stroke-width="4.58333" stroke-miterlimit="8" fill="#00B050"/><path d="M1325 891C1325 905.359 1313.36 917 1299 917 1284.64 917 1273 905.359 1273 891 1273 876.641 1284.64 865 1299 865 1313.36 865 1325 876.641 1325 891Z" fill="#92D050" fill-rule="evenodd"/><path d="M1325 828C1325 842.359 1313.36 854 1299 854 1284.64 854 1273 842.359 1273 828 1273 813.641 1284.64 802 1299 802 1313.36 802 1325 813.641 1325 828Z" fill="#FF0000" fill-rule="evenodd"/><path d="M1325 764C1325 778.359 1313.36 790 1299 790 1284.64 790 1273 778.359 1273 764 1273 749.641 1284.64 738 1299 738 1313.36 738 1325 749.641 1325 764Z" fill="#92D050" fill-rule="evenodd"/><path d="M1325 698C1325 712.359 1313.36 724 1299 724 1284.64 724 1273 712.359 1273 698 1273 683.641 1284.64 672 1299 672 1313.36 672 1325 683.641 1325 698Z" fill="#FF0000" fill-rule="evenodd"/><rect x="1360.5" y="859.5" width="32" height="64.9999" stroke="#767171" stroke-width="4.58333" stroke-miterlimit="8" fill="#00B050"/><rect x="1360.5" y="664.5" width="32" height="64.9999" stroke="#767171" stroke-width="4.58333" stroke-miterlimit="8" fill="#00B050"/><rect x="1360.5" y="729.5" width="32" height="65" stroke="#767171" stroke-width="4.58333" stroke-miterlimit="8" fill="#00B050"/><rect x="1360.5" y="794.5" width="32" height="65" stroke="#767171" stroke-width="4.58333" stroke-miterlimit="8" fill="#00B050"/><rect x="1238.5" y="950.5" width="156" height="260" stroke="#767171" stroke-width="4.58333" stroke-miterlimit="8" fill="#00B050"/><path d="M1327 1177C1327 1191.36 1315.36 1203 1301 1203 1286.64 1203 1275 1191.36 1275 1177 1275 1162.64 1286.64 1151 1301 1151 1315.36 1151 1327 1162.64 1327 1177Z" fill="#92D050" fill-rule="evenodd"/><path d="M1327 1113C1327 1127.36 1315.36 1139 1301 1139 1286.64 1139 1275 1127.36 1275 1113 1275 1098.64 1286.64 1087 1301 1087 1315.36 1087 1327 1098.64 1327 1113Z" fill="#FF0000" fill-rule="evenodd"/><path d="M1327 1050C1327 1064.36 1315.36 1076 1301 1076 1286.64 1076 1275 1064.36 1275 1050 1275 1035.64 1286.64 1024 1301 1024 1315.36 1024 1327 1035.64 1327 1050Z" fill="#92D050" fill-rule="evenodd"/><path d="M1327 983C1327 997.359 1315.36 1009 1301 1009 1286.64 1009 1275 997.359 1275 983 1275 968.641 1286.64 957 1301 957 1315.36 957 1327 968.641 1327 983Z" fill="#FF0000" fill-rule="evenodd"/><rect x="1362.5" y="1144.5" width="33" height="65.0004" stroke="#767171" stroke-width="4.58333" stroke-miterlimit="8" fill="#00B050"/><rect x="1362.5" y="950.5" width="33" height="64.9999" stroke="#767171" stroke-width="4.58333" stroke-miterlimit="8" fill="#00B050"/><rect x="1362.5" y="1015.5" width="33" height="63.9999" stroke="#767171" stroke-width="4.58333" stroke-miterlimit="8" fill="#00B050"/><rect x="1362.5" y="1079.5" width="33" height="65" stroke="#767171" stroke-width="4.58333" stroke-miterlimit="8" fill="#00B050"/><rect x="422.5" y="1076.5" width="155" height="130" stroke="#767171" stroke-width="4.58333" stroke-miterlimit="8" fill="#00B050"/><path d="M489 1108C489 1093.64 500.641 1082 515 1082 529.359 1082 541 1093.64 541 1108 541 1122.36 529.359 1134 515 1134 500.641 1134 489 1122.36 489 1108Z" fill="#92D050" fill-rule="evenodd"/><path d="M489 1172C489 1157.64 500.641 1146 515 1146 529.359 1146 541 1157.64 541 1172 541 1186.36 529.359 1198 515 1198 500.641 1198 489 1186.36 489 1172Z" fill="#FF0000" fill-rule="evenodd"/><rect x="421.5" y="1076.5" width="33" height="65" stroke="#767171" stroke-width="4.58333" stroke-miterlimit="8" fill="#00B050"/><rect x="421.5" y="1141.5" width="33" height="65" stroke="#767171" stroke-width="4.58333" stroke-miterlimit="8" fill="#00B050"/><rect x="426.5" y="649.5" width="156" height="130" stroke="#767171" stroke-width="4.58333" stroke-miterlimit="8" fill="#00B050"/><path d="M493 681C493 666.64 504.641 655 519 655 533.359 655 545 666.64 545 681 545 695.359 533.359 707 519 707 504.641 707 493 695.359 493 681Z" fill="#FF0000" fill-rule="evenodd"/><path d="M493 745C493 730.641 504.641 719 519 719 533.359 719 545 730.641 545 745 545 759.359 533.359 771 519 771 504.641 771 493 759.359 493 745Z" fill="#92D050" fill-rule="evenodd"/><rect x="425.5" y="649.5" width="33" height="65.0003" stroke="#767171" stroke-width="4.58333" stroke-miterlimit="8" fill="#00B050"/><rect x="425.5" y="714.5" width="33" height="64.9999" stroke="#767171" stroke-width="4.58333" stroke-miterlimit="8" fill="#00B050"/></g></svg>