<svg width="1607" height="1875" xmlns="http://www.w3.org/2000/svg" xmlns:xlink="http://www.w3.org/1999/xlink" xml:space="preserve" overflow="hidden"><defs><clipPath id="clip0"><rect x="1828" y="88" width="1607" height="1875"/></clipPath></defs><g clip-path="url(#clip0)" transform="translate(-1828 -88)"><rect x="1828" y="88" width="1607" height="1875" fill="#FFFFFF"/><text font-family="Calibri,Calibri_MSFontService,sans-serif" font-weight="400" font-size="55" transform="matrix(1 0 0 1 1892.96 1328)">9V M5</text><text font-family="Calibri,Calibri_MSFontService,sans-serif" font-weight="400" font-size="55" transform="matrix(1 0 0 1 2039.63 1328)">-</text><text font-family="Calibri,Calibri_MSFontService,sans-serif" font-weight="400" font-size="55" transform="matrix(1 0 0 1 2056.24 1328)">M8</text><text font-family="Calibri,Calibri_MSFontService,sans-serif" font-weight="400" font-size="55" transform="matrix(1 0 0 1 1889.43 649)">9V M1</text><text font-family="Calibri,Calibri_MSFontService,sans-serif" font-weight="400" font-size="55" transform="matrix(1 0 0 1 2036.09 649)">-</text><text font-family="Calibri,Calibri_MSFontService,sans-serif" font-weight="400" font-size="55" transform="matrix(1 0 0 1 2052.71 649)">M4</text><path d="M2824 1667.67C2824 1648.52 2839.52 1633 2858.67 1633L3023.33 1633C3042.48 1633 3058 1648.52 3058 1667.67L3058 1806.33C3058 1825.48 3042.48 1841 3023.33 1841L2858.67 1841C2839.52 1841 2824 1825.48 2824 1806.33Z" fill="#AFABAB" fill-rule="evenodd"/><rect x="2150.5" y="220.5" width="974" height="1567" stroke="#A6A6A6" stroke-width="4.58333" stroke-miterlimit="8" fill="#A6A6A6" fill-opacity="0.2"/><rect x="2204.5" y="1631.5" width="130" height="155" stroke="#767171" stroke-width="4.58333" stroke-miterlimit="8" fill="#00B050"/><path d="M2237 1719C2222.64 1719 2211 1707.36 2211 1693 2211 1678.64 2222.64 1667 2237 1667 2251.36 1667 2263 1678.64 2263 1693 2263 1707.36 2251.36 1719 2237 1719Z" fill="#92D050" fill-rule="evenodd"/><path d="M2300 1719C2285.64 1719 2274 1707.36 2274 1693 2274 1678.64 2285.64 1667 2300 1667 2314.36 1667 2326 1678.64 2326 1693 2326 1707.36 2314.36 1719 2300 1719Z" fill="#FF0000" fill-rule="evenodd"/><rect x="2204.5" y="1754.5" width="65" height="33" stroke="#767171" stroke-width="4.58333" stroke-miterlimit="8" fill="#00B050"/><rect x="2269.5" y="1754.5" width="65" height="33" stroke="#767171" stroke-width="4.58333" stroke-miterlimit="8" fill="#00B050"/><path d="M2604.5 829C2604.5 811.051 2619.05 796.5 2637 796.5 2654.95 796.5 2669.5 811.051 2669.5 829 2669.5 846.949 2654.95 861.5 2637 861.5 2619.05 861.5 2604.5 846.949 2604.5 829Z" stroke="#767171" stroke-width="4.58333" stroke-miterlimit="8" fill="#767171" fill-rule="evenodd"/><path d="M2391.5 828.5C2391.5 792.601 2420.6 763.5 2456.5 763.5 2492.4 763.5 2521.5 792.601 2521.5 828.5 2521.5 864.398 2492.4 893.5 2456.5 893.5 2420.6 893.5 2391.5 864.398 2391.5 828.5Z" stroke="#767171" stroke-width="4.58333" stroke-miterlimit="8" fill="#FF0000" fill-rule="evenodd"/><path d="M2753.5 833.5C2753.5 797.602 2782.6 768.5 2818.5 768.5 2854.4 768.5 2883.5 797.602 2883.5 833.5 2883.5 869.399 2854.4 898.5 2818.5 898.5 2782.6 898.5 2753.5 869.399 2753.5 833.5Z" stroke="#767171" stroke-width="4.58333" stroke-miterlimit="8" fill="#FF0000" fill-rule="evenodd"/><rect x="2877" y="1215" width="65.0002" height="130" fill="#595959"/><rect x="2888" y="1296" width="41.0002" height="33" fill="#FFF2CC"/><rect x="2888" y="1231" width="41.0002" height="33" fill="#FFF2CC"/><text font-family="Calibri,Calibri_MSFontService,sans-serif" font-weight="400" font-size="55" transform="matrix(1 0 0 1 2570.59 774)">RESET</text><text font-family="Calibri,Calibri_MSFontService,sans-serif" font-weight="400" font-size="55" transform="matrix(1 0 0 1 2762.91 850)">LED1</text><text font-family="Calibri,Calibri_MSFontService,sans-serif" font-weight="400" font-size="55" transform="matrix(1 0 0 1 2397.91 848)">LED2</text><text font-family="Calibri,Calibri_MSFontService,sans-serif" font-weight="400" font-size="55" transform="matrix(-1.83697e-16 -1 1 -1.83697e-16 2862.28 1350)">RS485</text><path d="M2526 1165.5C2526 1162.46 2528.46 1160 2531.5 1160L2553.5 1160C2556.54 1160 2559 1162.46 2559 1165.5L2559 1739.5C2559 1742.54 2556.54 1745 2553.5 1745L2531.5 1745C2528.46 1745 2526 1742.54 2526 1739.5Z" fill="#D9D9D9" fill-rule="evenodd"/><path d="M2459 1165.5C2459 1162.46 2461.46 1160 2464.5 1160L2486.5 1160C2489.54 1160 2492 1162.46 2492 1165.5L2492 1739.5C2492 1742.54 2489.54 1745 2486.5 1745L2464.5 1745C2461.46 1745 2459 1742.54 2459 1739.5Z" fill="#D9D9D9" fill-rule="evenodd"/><path d="M2393 1167.33C2393 1164.39 2395.39 1162 2398.33 1162L2419.67 1162C2422.61 1162 2425 1164.39 2425 1167.33L2425 1740.67C2425 1743.61 2422.61 1746 2419.67 1746L2398.33 1746C2395.39 1746 2393 1743.61 2393 1740.67Z" fill="#D9D9D9" fill-rule="evenodd"/><text font-family="Calibri,Calibri_MSFontService,sans-serif" font-weight="400" font-size="55" transform="matrix(1 0 0 1 2897.41 1754)">USB</text><rect x="2966.5" y="1086.5" width="156" height="260" stroke="#767171" stroke-width="4.58333" stroke-miterlimit="8" fill="#00B050"/><path d="M3055 1313C3055 1327.36 3043.36 1339 3029 1339 3014.64 1339 3003 1327.36 3003 1313 3003 1298.64 3014.64 1287 3029 1287 3043.36 1287 3055 1298.64 3055 1313Z" fill="#92D050" fill-rule="evenodd"/><path d="M3055 1249C3055 1263.36 3043.36 1275 3029 1275 3014.64 1275 3003 1263.36 3003 1249 3003 1234.64 3014.64 1223 3029 1223 3043.36 1223 3055 1234.64 3055 1249Z" fill="#FF0000" fill-rule="evenodd"/><path d="M3055 1186C3055 1200.36 3043.36 1212 3029 1212 3014.64 1212 3003 1200.36 3003 1186 3003 1171.64 3014.64 1160 3029 1160 3043.36 1160 3055 1171.64 3055 1186Z" fill="#92D050" fill-rule="evenodd"/><path d="M3055 1119C3055 1133.36 3043.36 1145 3029 1145 3014.64 1145 3003 1133.36 3003 1119 3003 1104.64 3014.64 1093 3029 1093 3043.36 1093 3055 1104.64 3055 1119Z" fill="#FF0000" fill-rule="evenodd"/><rect x="3090.5" y="1280.5" width="33" height="65" stroke="#767171" stroke-width="4.58333" stroke-miterlimit="8" fill="#00B050"/><rect x="3090.5" y="1086.5" width="33" height="65" stroke="#767171" stroke-width="4.58333" stroke-miterlimit="8" fill="#00B050"/><rect x="3090.5" y="1151.5" width="33" height="65" stroke="#767171" stroke-width="4.58333" stroke-miterlimit="8" fill="#00B050"/><rect x="3090.5" y="1215.5" width="33" height="65" stroke="#767171" stroke-width="4.58333" stroke-miterlimit="8" fill="#00B050"/><rect x="2966.5" y="817.5" width="156" height="260" stroke="#767171" stroke-width="4.58333" stroke-miterlimit="8" fill="#00B050"/><path d="M3055 1044C3055 1058.36 3043.36 1070 3029 1070 3014.64 1070 3003 1058.36 3003 1044 3003 1029.64 3014.64 1018 3029 1018 3043.36 1018 3055 1029.64 3055 1044Z" fill="#92D050" fill-rule="evenodd"/><path d="M3055 980C3055 994.36 3043.36 1006 3029 1006 3014.64 1006 3003 994.36 3003 980 3003 965.641 3014.64 954 3029 954 3043.36 954 3055 965.641 3055 980Z" fill="#FF0000" fill-rule="evenodd"/><path d="M3055 917C3055 931.359 3043.36 943 3029 943 3014.64 943 3003 931.359 3003 917 3003 902.641 3014.64 891 3029 891 3043.36 891 3055 902.641 3055 917Z" fill="#92D050" fill-rule="evenodd"/><path d="M3055 850C3055 864.359 3043.36 876 3029 876 3014.64 876 3003 864.359 3003 850 3003 835.641 3014.64 824 3029 824 3043.36 824 3055 835.641 3055 850Z" fill="#FF0000" fill-rule="evenodd"/><rect x="3090.5" y="1011.5" width="33" height="65" stroke="#767171" stroke-width="4.58333" stroke-miterlimit="8" fill="#00B050"/><rect x="3090.5" y="817.5" width="33" height="65" stroke="#767171" stroke-width="4.58333" stroke-miterlimit="8" fill="#00B050"/><rect x="3090.5" y="882.5" width="33" height="65" stroke="#767171" stroke-width="4.58333" stroke-miterlimit="8" fill="#00B050"/><rect x="3090.5" y="946.5" width="33" height="65.0003" stroke="#767171" stroke-width="4.58333" stroke-miterlimit="8" fill="#00B050"/><rect x="2966.5" y="548.5" width="156" height="260" stroke="#767171" stroke-width="4.58333" stroke-miterlimit="8" fill="#00B050"/><path d="M3055 775C3055 789.359 3043.36 801 3029 801 3014.64 801 3003 789.359 3003 775 3003 760.641 3014.64 749 3029 749 3043.36 749 3055 760.641 3055 775Z" fill="#92D050" fill-rule="evenodd"/><path d="M3055 711C3055 725.359 3043.36 737 3029 737 3014.64 737 3003 725.359 3003 711 3003 696.641 3014.64 685 3029 685 3043.36 685 3055 696.641 3055 711Z" fill="#FF0000" fill-rule="evenodd"/><path d="M3055 648C3055 662.359 3043.36 674 3029 674 3014.64 674 3003 662.359 3003 648 3003 633.641 3014.64 622 3029 622 3043.36 622 3055 633.641 3055 648Z" fill="#92D050" fill-rule="evenodd"/><path d="M3055 581C3055 595.359 3043.36 607 3029 607 3014.64 607 3003 595.359 3003 581 3003 566.641 3014.64 555 3029 555 3043.36 555 3055 566.641 3055 581Z" fill="#FF0000" fill-rule="evenodd"/><rect x="3090.5" y="742.5" width="33" height="64.9999" stroke="#767171" stroke-width="4.58333" stroke-miterlimit="8" fill="#00B050"/><rect x="3090.5" y="548.5" width="33" height="65" stroke="#767171" stroke-width="4.58333" stroke-miterlimit="8" fill="#00B050"/><rect x="3090.5" y="613.5" width="33" height="63.9999" stroke="#767171" stroke-width="4.58333" stroke-miterlimit="8" fill="#00B050"/><rect x="3090.5" y="677.5" width="33" height="65" stroke="#767171" stroke-width="4.58333" stroke-miterlimit="8" fill="#00B050"/><rect x="2966.5" y="279.5" width="156" height="260" stroke="#767171" stroke-width="4.58333" stroke-miterlimit="8" fill="#00B050"/><path d="M3055 506C3055 520.359 3043.36 532 3029 532 3014.64 532 3003 520.359 3003 506 3003 491.641 3014.64 480 3029 480 3043.36 480 3055 491.641 3055 506Z" fill="#92D050" fill-rule="evenodd"/><path d="M3055 442C3055 456.359 3043.36 468 3029 468 3014.64 468 3003 456.359 3003 442 3003 427.641 3014.64 416 3029 416 3043.36 416 3055 427.641 3055 442Z" fill="#FF0000" fill-rule="evenodd"/><path d="M3055 379C3055 393.359 3043.36 405 3029 405 3014.64 405 3003 393.359 3003 379 3003 364.641 3014.64 353 3029 353 3043.36 353 3055 364.641 3055 379Z" fill="#92D050" fill-rule="evenodd"/><path d="M3055 312C3055 326.359 3043.36 338 3029 338 3014.64 338 3003 326.359 3003 312 3003 297.641 3014.64 286 3029 286 3043.36 286 3055 297.641 3055 312Z" fill="#FF0000" fill-rule="evenodd"/><rect x="3090.5" y="473.5" width="33" height="65.0003" stroke="#767171" stroke-width="4.58333" stroke-miterlimit="8" fill="#00B050"/><rect x="3090.5" y="279.5" width="33" height="65" stroke="#767171" stroke-width="4.58333" stroke-miterlimit="8" fill="#00B050"/><rect x="3090.5" y="344.5" width="33" height="63.9999" stroke="#767171" stroke-width="4.58333" stroke-miterlimit="8" fill="#00B050"/><rect x="3090.5" y="408.5" width="33" height="65" stroke="#767171" stroke-width="4.58333" stroke-miterlimit="8" fill="#00B050"/><rect x="2150.5" y="1352.5" width="156" height="260" stroke="#767171" stroke-width="4.58333" stroke-miterlimit="8" fill="#00B050"/><path d="M2217 1384C2217 1369.64 2228.64 1358 2243 1358 2257.36 1358 2269 1369.64 2269 1384 2269 1398.36 2257.36 1410 2243 1410 2228.64 1410 2217 1398.36 2217 1384Z" fill="#AFABAB" fill-rule="evenodd"/><path d="M2217 1448C2217 1433.64 2228.64 1422 2243 1422 2257.36 1422 2269 1433.64 2269 1448 2269 1462.36 2257.36 1474 2243 1474 2228.64 1474 2217 1462.36 2217 1448Z" fill="#AFABAB" fill-rule="evenodd"/><path d="M2217 1512C2217 1497.64 2228.64 1486 2243 1486 2257.36 1486 2269 1497.64 2269 1512 2269 1526.36 2257.36 1538 2243 1538 2228.64 1538 2217 1526.36 2217 1512Z" fill="#AFABAB" fill-rule="evenodd"/><path d="M2217 1578C2217 1563.64 2228.64 1552 2243 1552 2257.36 1552 2269 1563.64 2269 1578 2269 1592.36 2257.36 1604 2243 1604 2228.64 1604 2217 1592.36 2217 1578Z" fill="#AFABAB" fill-rule="evenodd"/><rect x="2149.5" y="1352.5" width="33" height="65" stroke="#767171" stroke-width="4.58333" stroke-miterlimit="8" fill="#00B050"/><rect x="2149.5" y="1547.5" width="33" height="65" stroke="#767171" stroke-width="4.58333" stroke-miterlimit="8" fill="#00B050"/><rect x="2149.5" y="1482.5" width="33" height="65" stroke="#767171" stroke-width="4.58333" stroke-miterlimit="8" fill="#00B050"/><rect x="2149.5" y="1417.5" width="33" height="65" stroke="#767171" stroke-width="4.58333" stroke-miterlimit="8" fill="#00B050"/><path d="M0 0 36.7475 36.7475" stroke="#BFBFBF" stroke-width="9.16667" stroke-miterlimit="8" fill="none" fill-rule="evenodd" transform="matrix(1 0 0 -1 2224.5 1403.25)"/><path d="M2224.5 1430.5 2261.25 1467.25" stroke="#BFBFBF" stroke-width="9.16667" stroke-miterlimit="8" fill="none" fill-rule="evenodd"/><path d="M2217.5 1512.5 2269.47 1512.5" stroke="#BFBFBF" stroke-width="9.16667" stroke-miterlimit="8" fill="none" fill-rule="evenodd"/><path d="M0 0 0.000360892 51.9685" stroke="#BFBFBF" stroke-width="9.16667" stroke-miterlimit="8" fill="none" fill-rule="evenodd" transform="matrix(1 0 0 -1 2243.5 1604.47)"/><rect x="2150.5" y="1212.5" width="156" height="130" stroke="#767171" stroke-width="4.58333" stroke-miterlimit="8" fill="#00B050"/><path d="M2217 1245C2217 1230.64 2228.64 1219 2243 1219 2257.36 1219 2269 1230.64 2269 1245 2269 1259.36 2257.36 1271 2243 1271 2228.64 1271 2217 1259.36 2217 1245Z" fill="#92D050" fill-rule="evenodd"/><path d="M2217 1308C2217 1293.64 2228.64 1282 2243 1282 2257.36 1282 2269 1293.64 2269 1308 2269 1322.36 2257.36 1334 2243 1334 2228.64 1334 2217 1322.36 2217 1308Z" fill="#FF0000" fill-rule="evenodd"/><rect x="2149.5" y="1212.5" width="33" height="65" stroke="#767171" stroke-width="4.58333" stroke-miterlimit="8" fill="#00B050"/><rect x="2149.5" y="1277.5" width="33" height="65" stroke="#767171" stroke-width="4.58333" stroke-miterlimit="8" fill="#00B050"/><rect x="2150.5" y="942.5" width="156" height="260" stroke="#767171" stroke-width="4.58333" stroke-miterlimit="8" fill="#00B050"/><path d="M2217 975C2217 960.641 2228.64 949 2243 949 2257.36 949 2269 960.641 2269 975 2269 989.359 2257.36 1001 2243 1001 2228.64 1001 2217 989.359 2217 975Z" fill="#AFABAB" fill-rule="evenodd"/><path d="M2217 1039C2217 1024.64 2228.64 1013 2243 1013 2257.36 1013 2269 1024.64 2269 1039 2269 1053.36 2257.36 1065 2243 1065 2228.64 1065 2217 1053.36 2217 1039Z" fill="#AFABAB" fill-rule="evenodd"/><path d="M2217 1102C2217 1087.64 2228.64 1076 2243 1076 2257.36 1076 2269 1087.64 2269 1102 2269 1116.36 2257.36 1128 2243 1128 2228.64 1128 2217 1116.36 2217 1102Z" fill="#AFABAB" fill-rule="evenodd"/><path d="M2217 1169C2217 1154.64 2228.64 1143 2243 1143 2257.36 1143 2269 1154.64 2269 1169 2269 1183.36 2257.36 1195 2243 1195 2228.64 1195 2217 1183.36 2217 1169Z" fill="#AFABAB" fill-rule="evenodd"/><rect x="2149.5" y="943.5" width="33" height="65" stroke="#767171" stroke-width="4.58333" stroke-miterlimit="8" fill="#00B050"/><rect x="2149.5" y="1137.5" width="33" height="65" stroke="#767171" stroke-width="4.58333" stroke-miterlimit="8" fill="#00B050"/><rect x="2149.5" y="1072.5" width="33" height="65" stroke="#767171" stroke-width="4.58333" stroke-miterlimit="8" fill="#00B050"/><rect x="2149.5" y="1008.5" width="33" height="64.9999" stroke="#767171" stroke-width="4.58333" stroke-miterlimit="8" fill="#00B050"/><path d="M0 0 36.7475 36.7475" stroke="#BFBFBF" stroke-width="9.16667" stroke-miterlimit="8" fill="none" fill-rule="evenodd" transform="matrix(1 0 0 -1 2224.5 994.247)"/><path d="M2224.5 1020.5 2261.25 1057.25" stroke="#BFBFBF" stroke-width="9.16667" stroke-miterlimit="8" fill="none" fill-rule="evenodd"/><path d="M2217.5 1102.5 2269.47 1102.5" stroke="#BFBFBF" stroke-width="9.16667" stroke-miterlimit="8" fill="none" fill-rule="evenodd"/><path d="M0 0 0.000360892 51.9685" stroke="#BFBFBF" stroke-width="9.16667" stroke-miterlimit="8" fill="none" fill-rule="evenodd" transform="matrix(1 0 0 -1 2243.5 1195.47)"/><rect x="2150.5" y="672.5" width="156" height="260" stroke="#767171" stroke-width="4.58333" stroke-miterlimit="8" fill="#00B050"/><path d="M2217 705C2217 690.641 2228.64 679 2243 679 2257.36 679 2269 690.641 2269 705 2269 719.359 2257.36 731 2243 731 2228.64 731 2217 719.359 2217 705Z" fill="#AFABAB" fill-rule="evenodd"/><path d="M2217 769C2217 754.64 2228.64 743 2243 743 2257.36 743 2269 754.64 2269 769 2269 783.359 2257.36 795 2243 795 2228.64 795 2217 783.359 2217 769Z" fill="#AFABAB" fill-rule="evenodd"/><path d="M2217 832C2217 817.641 2228.64 806 2243 806 2257.36 806 2269 817.641 2269 832 2269 846.359 2257.36 858 2243 858 2228.64 858 2217 846.359 2217 832Z" fill="#AFABAB" fill-rule="evenodd"/><path d="M2217 899C2217 884.641 2228.64 873 2243 873 2257.36 873 2269 884.641 2269 899 2269 913.359 2257.36 925 2243 925 2228.64 925 2217 913.359 2217 899Z" fill="#AFABAB" fill-rule="evenodd"/><rect x="2149.5" y="673.5" width="33" height="65" stroke="#767171" stroke-width="4.58333" stroke-miterlimit="8" fill="#00B050"/><rect x="2149.5" y="867.5" width="33" height="65" stroke="#767171" stroke-width="4.58333" stroke-miterlimit="8" fill="#00B050"/><rect x="2149.5" y="802.5" width="33" height="64.9999" stroke="#767171" stroke-width="4.58333" stroke-miterlimit="8" fill="#00B050"/><rect x="2149.5" y="738.5" width="33" height="65" stroke="#767171" stroke-width="4.58333" stroke-miterlimit="8" fill="#00B050"/><path d="M0 0 36.7475 36.7475" stroke="#BFBFBF" stroke-width="9.16667" stroke-miterlimit="8" fill="none" fill-rule="evenodd" transform="matrix(1 0 0 -1 2224.5 724.247)"/><path d="M2224.5 750.5 2261.25 787.247" stroke="#BFBFBF" stroke-width="9.16667" stroke-miterlimit="8" fill="none" fill-rule="evenodd"/><path d="M2217.5 832.5 2269.47 832.5" stroke="#BFBFBF" stroke-width="9.16667" stroke-miterlimit="8" fill="none" fill-rule="evenodd"/><path d="M0 0 0.000360892 51.9685" stroke="#BFBFBF" stroke-width="9.16667" stroke-miterlimit="8" fill="none" fill-rule="evenodd" transform="matrix(1 0 0 -1 2243.5 925.468)"/><rect x="2150.5" y="533.5" width="156" height="130" stroke="#767171" stroke-width="4.58333" stroke-miterlimit="8" fill="#00B050"/><path d="M2217 565C2217 550.641 2228.64 539 2243 539 2257.36 539 2269 550.641 2269 565 2269 579.359 2257.36 591 2243 591 2228.64 591 2217 579.359 2217 565Z" fill="#92D050" fill-rule="evenodd"/><path d="M2217 629C2217 614.641 2228.64 603 2243 603 2257.36 603 2269 614.641 2269 629 2269 643.359 2257.36 655 2243 655 2228.64 655 2217 643.359 2217 629Z" fill="#FF0000" fill-rule="evenodd"/><rect x="2149.5" y="533.5" width="33" height="65" stroke="#767171" stroke-width="4.58333" stroke-miterlimit="8" fill="#00B050"/><rect x="2149.5" y="598.5" width="33" height="64.9999" stroke="#767171" stroke-width="4.58333" stroke-miterlimit="8" fill="#00B050"/><rect x="2150.5" y="263.5" width="156" height="260" stroke="#767171" stroke-width="4.58333" stroke-miterlimit="8" fill="#00B050"/><path d="M2217 296C2217 281.641 2228.64 270 2243 270 2257.36 270 2269 281.641 2269 296 2269 310.359 2257.36 322 2243 322 2228.64 322 2217 310.359 2217 296Z" fill="#AFABAB" fill-rule="evenodd"/><path d="M2217 359.5C2217 345.417 2228.64 334 2243 334 2257.36 334 2269 345.417 2269 359.5 2269 373.583 2257.36 385 2243 385 2228.64 385 2217 373.583 2217 359.5Z" fill="#AFABAB" fill-rule="evenodd"/><path d="M2217 423C2217 408.641 2228.64 397 2243 397 2257.36 397 2269 408.641 2269 423 2269 437.359 2257.36 449 2243 449 2228.64 449 2217 437.359 2217 423Z" fill="#AFABAB" fill-rule="evenodd"/><path d="M2217 489C2217 474.641 2228.64 463 2243 463 2257.36 463 2269 474.641 2269 489 2269 503.359 2257.36 515 2243 515 2228.64 515 2217 503.359 2217 489Z" fill="#AFABAB" fill-rule="evenodd"/><rect x="2149.5" y="263.5" width="33" height="65" stroke="#767171" stroke-width="4.58333" stroke-miterlimit="8" fill="#00B050"/><rect x="2149.5" y="458.5" width="33" height="64.9999" stroke="#767171" stroke-width="4.58333" stroke-miterlimit="8" fill="#00B050"/><rect x="2149.5" y="393.5" width="33" height="65" stroke="#767171" stroke-width="4.58333" stroke-miterlimit="8" fill="#00B050"/><rect x="2149.5" y="328.5" width="33" height="65" stroke="#767171" stroke-width="4.58333" stroke-miterlimit="8" fill="#00B050"/><path d="M0 0 36.7475 36.7475" stroke="#BFBFBF" stroke-width="9.16667" stroke-miterlimit="8" fill="none" fill-rule="evenodd" transform="matrix(1 0 0 -1 2224.5 315.247)"/><path d="M2224.5 341.5 2261.25 378.247" stroke="#BFBFBF" stroke-width="9.16667" stroke-miterlimit="8" fill="none" fill-rule="evenodd"/><path d="M2217.5 423.5 2269.47 423.5" stroke="#BFBFBF" stroke-width="9.16667" stroke-miterlimit="8" fill="none" fill-rule="evenodd"/><path d="M0 0 0.000360892 51.9685" stroke="#BFBFBF" stroke-width="9.16667" stroke-miterlimit="8" fill="none" fill-rule="evenodd" transform="matrix(1 0 0 -1 2243.5 515.468)"/><path d="M2728 1165.33C2728 1162.39 2730.39 1160 2733.33 1160L2754.67 1160C2757.61 1160 2760 1162.39 2760 1165.33L2760 1738.67C2760 1741.61 2757.61 1744 2754.67 1744L2733.33 1744C2730.39 1744 2728 1741.61 2728 1738.67Z" fill="#D9D9D9" fill-rule="evenodd"/><path d="M2661 1165.33C2661 1162.39 2663.39 1160 2666.33 1160L2687.67 1160C2690.61 1160 2693 1162.39 2693 1165.33L2693 1738.67C2693 1741.61 2690.61 1744 2687.67 1744L2666.33 1744C2663.39 1744 2661 1741.61 2661 1738.67Z" fill="#D9D9D9" fill-rule="evenodd"/><path d="M2594 1166.5C2594 1163.46 2596.46 1161 2599.5 1161L2621.5 1161C2624.54 1161 2627 1163.46 2627 1166.5L2627 1739.5C2627 1742.54 2624.54 1745 2621.5 1745L2599.5 1745C2596.46 1745 2594 1742.54 2594 1739.5Z" fill="#D9D9D9" fill-rule="evenodd"/><text font-family="Calibri,Calibri_MSFontService,sans-serif" font-weight="400" font-size="55" transform="matrix(1 0 0 1 3140.53 1405)">RS485A</text><text font-family="Calibri,Calibri_MSFontService,sans-serif" font-weight="400" font-size="55" transform="matrix(1 0 0 1 3141.7 1532)">RS485A</text><text font-family="Calibri,Calibri_MSFontService,sans-serif" font-weight="400" font-size="55" transform="matrix(1 0 0 1 3144.56 1469)">RS485B</text><text font-family="Calibri,Calibri_MSFontService,sans-serif" font-weight="400" font-size="55" transform="matrix(1 0 0 1 3145.73 1597)">RS485B</text><text font-family="Calibri,Calibri_MSFontService,sans-serif" font-weight="400" font-size="55" transform="matrix(1 0 0 1 3142.67 326)">A1</text><text font-family="Calibri,Calibri_MSFontService,sans-serif" font-weight="400" font-size="55" transform="matrix(1 0 0 1 3140.84 389)">GND</text><text font-family="Calibri,Calibri_MSFontService,sans-serif" font-weight="400" font-size="55" transform="matrix(1 0 0 1 3141.72 453)">A2</text><text font-family="Calibri,Calibri_MSFontService,sans-serif" font-weight="400" font-size="55" transform="matrix(1 0 0 1 3139.89 519)">GND</text><text font-family="Calibri,Calibri_MSFontService,sans-serif" font-weight="400" font-size="55" transform="matrix(1 0 0 1 3145.4 600)">A3</text><text font-family="Calibri,Calibri_MSFontService,sans-serif" font-weight="400" font-size="55" transform="matrix(1 0 0 1 3143.57 664)">GND</text><text font-family="Calibri,Calibri_MSFontService,sans-serif" font-weight="400" font-size="55" transform="matrix(1 0 0 1 3144.46 728)">A4</text><text font-family="Calibri,Calibri_MSFontService,sans-serif" font-weight="400" font-size="55" transform="matrix(1 0 0 1 3142.63 794)">GND</text><text font-family="Calibri,Calibri_MSFontService,sans-serif" font-weight="400" font-size="55" transform="matrix(1 0 0 1 3149.36 868)">A5</text><text font-family="Calibri,Calibri_MSFontService,sans-serif" font-weight="400" font-size="55" transform="matrix(1 0 0 1 3147.53 932)">GND</text><text font-family="Calibri,Calibri_MSFontService,sans-serif" font-weight="400" font-size="55" transform="matrix(1 0 0 1 3148.41 995)">A6</text><text font-family="Calibri,Calibri_MSFontService,sans-serif" font-weight="400" font-size="55" transform="matrix(1 0 0 1 3146.58 1061)">GND</text><text font-family="Calibri,Calibri_MSFontService,sans-serif" font-weight="400" font-size="55" transform="matrix(1 0 0 1 3151.07 1134)">A7</text><text font-family="Calibri,Calibri_MSFontService,sans-serif" font-weight="400" font-size="55" transform="matrix(1 0 0 1 3149.24 1198)">GND</text><text font-family="Calibri,Calibri_MSFontService,sans-serif" font-weight="400" font-size="55" transform="matrix(1 0 0 1 3150.12 1262)">A8</text><text font-family="Calibri,Calibri_MSFontService,sans-serif" font-weight="400" font-size="55" transform="matrix(1 0 0 1 3148.29 1328)">GND</text><text font-family="Calibri,Calibri_MSFontService,sans-serif" font-weight="400" font-size="55" transform="matrix(1 0 0 1 2025.71 1266)">GND</text><text font-family="Calibri,Calibri_MSFontService,sans-serif" font-weight="400" font-size="55" transform="matrix(1 0 0 1 2024.91 587)">GND</text><text font-family="Calibri,Calibri_MSFontService,sans-serif" font-weight="400" font-size="55" transform="matrix(1 0 0 1 2057.2 1407)">M7</text><text font-family="Calibri,Calibri_MSFontService,sans-serif" font-weight="400" font-size="55" transform="matrix(1 0 0 1 2057.2 1470)">M7</text><text font-family="Calibri,Calibri_MSFontService,sans-serif" font-weight="400" font-size="55" transform="matrix(1 0 0 1 2057.2 1534)">M8</text><text font-family="Calibri,Calibri_MSFontService,sans-serif" font-weight="400" font-size="55" transform="matrix(1 0 0 1 2057.2 1600)">M8</text><text font-family="Calibri,Calibri_MSFontService,sans-serif" font-weight="400" font-size="55" transform="matrix(1 0 0 1 2056.12 991)">M5</text><text font-family="Calibri,Calibri_MSFontService,sans-serif" font-weight="400" font-size="55" transform="matrix(1 0 0 1 2056.12 1054)">M5</text><text font-family="Calibri,Calibri_MSFontService,sans-serif" font-weight="400" font-size="55" transform="matrix(1 0 0 1 2056.12 1118)">M6</text><text font-family="Calibri,Calibri_MSFontService,sans-serif" font-weight="400" font-size="55" transform="matrix(1 0 0 1 2056.12 1184)">M6</text><text font-family="Calibri,Calibri_MSFontService,sans-serif" font-weight="400" font-size="55" transform="matrix(1 0 0 1 2054.37 720)">M3</text><text font-family="Calibri,Calibri_MSFontService,sans-serif" font-weight="400" font-size="55" transform="matrix(1 0 0 1 2054.37 783)">M3</text><text font-family="Calibri,Calibri_MSFontService,sans-serif" font-weight="400" font-size="55" transform="matrix(1 0 0 1 2054.37 847)">M4</text><text font-family="Calibri,Calibri_MSFontService,sans-serif" font-weight="400" font-size="55" transform="matrix(1 0 0 1 2054.37 913)">M4</text><text font-family="Calibri,Calibri_MSFontService,sans-serif" font-weight="400" font-size="55" transform="matrix(1 0 0 1 2054.14 311)">M1</text><text font-family="Calibri,Calibri_MSFontService,sans-serif" font-weight="400" font-size="55" transform="matrix(1 0 0 1 2054.14 375)">M1</text><text font-family="Calibri,Calibri_MSFontService,sans-serif" font-weight="400" font-size="55" transform="matrix(1 0 0 1 2054.14 438)">M2</text><text font-family="Calibri,Calibri_MSFontService,sans-serif" font-weight="400" font-size="55" transform="matrix(1 0 0 1 2054.14 504)">M2</text><text font-family="Calibri,Calibri_MSFontService,sans-serif" font-weight="400" font-size="55" transform="matrix(-1.83697e-16 -1 1 -1.83697e-16 2249.18 1913)">GND</text><text font-family="Calibri,Calibri_MSFontService,sans-serif" font-weight="400" font-size="55" transform="matrix(-1.83697e-16 -1 1 -1.83697e-16 2315.16 1867)">9V</text><rect x="2503" y="535" width="260" height="65" fill="#595959"/><rect x="2519" y="546" width="33" height="40.0002" fill="#FFF2CC"/><rect x="2584" y="546" width="33" height="40.0002" fill="#FFF2CC"/><rect x="2649" y="546" width="33" height="40.0002" fill="#FFF2CC"/><rect x="2713" y="548" width="33" height="40.0002" fill="#FFF2CC"/><text font-family="Calibri,Calibri_MSFontService,sans-serif" font-weight="400" font-size="55" transform="matrix(-1.83697e-16 -1 1 -1.83697e-16 2542.41 517)">GND</text><text font-family="Calibri,Calibri_MSFontService,sans-serif" font-weight="400" font-size="55" transform="matrix(-1.83697e-16 -1 1 -1.83697e-16 2618.05 513)">SDC</text><text font-family="Calibri,Calibri_MSFontService,sans-serif" font-weight="400" font-size="55" transform="matrix(-1.83697e-16 -1 1 -1.83697e-16 2680.15 512)">SDA</text><text font-family="Calibri,Calibri_MSFontService,sans-serif" font-weight="400" font-size="55" transform="matrix(-1.83697e-16 -1 1 -1.83697e-16 2746.86 513)">3.3V</text><text font-family="Calibri,Calibri_MSFontService,sans-serif" font-weight="400" font-size="55" transform="matrix(1 0 0 1 2530.41 664)">Extension</text><rect x="2967.5" y="1354.5" width="156" height="260" stroke="#767171" stroke-width="4.58333" stroke-miterlimit="8" fill="#00B050"/><path d="M3056 1581C3056 1595.36 3044.36 1607 3030 1607 3015.64 1607 3004 1595.36 3004 1581 3004 1566.64 3015.64 1555 3030 1555 3044.36 1555 3056 1566.64 3056 1581Z" fill="#AFABAB" fill-rule="evenodd"/><path d="M3056 1518C3056 1532.36 3044.36 1544 3030 1544 3015.64 1544 3004 1532.36 3004 1518 3004 1503.64 3015.64 1492 3030 1492 3044.36 1492 3056 1503.64 3056 1518Z" fill="#AFABAB" fill-rule="evenodd"/><path d="M3056 1454C3056 1468.36 3044.36 1480 3030 1480 3015.64 1480 3004 1468.36 3004 1454 3004 1439.64 3015.64 1428 3030 1428 3044.36 1428 3056 1439.64 3056 1454Z" fill="#AFABAB" fill-rule="evenodd"/><path d="M3056 1388C3056 1402.36 3044.36 1414 3030 1414 3015.64 1414 3004 1402.36 3004 1388 3004 1373.64 3015.64 1362 3030 1362 3044.36 1362 3056 1373.64 3056 1388Z" fill="#AFABAB" fill-rule="evenodd"/><rect x="3091.5" y="1549.5" width="33" height="65" stroke="#767171" stroke-width="4.58333" stroke-miterlimit="8" fill="#00B050"/><rect x="3091.5" y="1354.5" width="33" height="65" stroke="#767171" stroke-width="4.58333" stroke-miterlimit="8" fill="#00B050"/><rect x="3091.5" y="1419.5" width="33" height="65.0004" stroke="#767171" stroke-width="4.58333" stroke-miterlimit="8" fill="#00B050"/><rect x="3091.5" y="1484.5" width="33" height="65" stroke="#767171" stroke-width="4.58333" stroke-miterlimit="8" fill="#00B050"/><path d="M0 0 36.7475 36.7475" stroke="#BFBFBF" stroke-width="9.16667" stroke-miterlimit="8" fill="none" fill-rule="evenodd" transform="matrix(-1 1.22465e-16 1.22465e-16 1 3049.25 1563.5)"/><path d="M3049.25 1536.25 3012.5 1499.5" stroke="#BFBFBF" stroke-width="9.16667" stroke-miterlimit="8" fill="none" fill-rule="evenodd"/><path d="M3056.47 1454.5 3004.5 1454.5" stroke="#BFBFBF" stroke-width="9.16667" stroke-miterlimit="8" fill="none" fill-rule="evenodd"/><path d="M0 0 0.000360892 51.9685" stroke="#BFBFBF" stroke-width="9.16667" stroke-miterlimit="8" fill="none" fill-rule="evenodd" transform="matrix(-1 1.22465e-16 1.22465e-16 1 3030.5 1362.5)"/></g></svg>