<svg width="1607" height="1875" xmlns="http://www.w3.org/2000/svg" xmlns:xlink="http://www.w3.org/1999/xlink" xml:space="preserve" overflow="hidden"><defs><clipPath id="clip0"><rect x="1828" y="88" width="1607" height="1875"/></clipPath><clipPath id="clip1"><path d="M2550.31 557.259 2538.97 493.413 2713.66 462.847 2725 526.693Z"/></clipPath><clipPath id="clip2"><path d="M2576.31 1059.26 2564.97 995.413 2739.66 964.848 2751 1028.69Z"/></clipPath></defs><g clip-path="url(#clip0)" transform="translate(-1828 -88)"><rect x="1828" y="88" width="1607" height="1875" fill="#FFFFFF"/><text font-family="Calibri,Calibri_MSFontService,sans-serif" font-weight="400" font-size="55" transform="matrix(1 0 0 1 2211.33 160)">F1</text><text font-family="Calibri,Calibri_MSFontService,sans-serif" font-weight="400" font-size="55" transform="matrix(1 0 0 1 3002.92 161)">F2</text><rect x="2073.5" y="220.5" width="1111" height="948" stroke="#FFFF00" stroke-width="4.58333" stroke-miterlimit="8" fill="#FFFF00" fill-opacity="0.54902"/><rect x="3074.5" y="241.5" width="93.0002" height="124" stroke="#172C51" stroke-width="4.58333" stroke-miterlimit="8" fill="#FFFFFF"/><rect x="3097.5" y="241.5" width="19" height="124" stroke="#FFFFFF" stroke-width="4.58333" stroke-miterlimit="8" fill="#FFFFFF"/><rect x="3074.5" y="293.5" width="23" height="16.9998" stroke="#FFFFFF" stroke-width="4.58333" stroke-miterlimit="8" fill="#FFFFFF"/><rect x="3110.5" y="315.5" width="20" height="16.9998" stroke="#172C51" stroke-width="4.58333" stroke-miterlimit="8" fill="#FF0000"/><rect x="3110.5" y="273.5" width="20" height="16.9998" stroke="#172C51" stroke-width="4.58333" stroke-miterlimit="8" fill="#92D050"/><rect x="2886.5" y="241.5" width="92.0002" height="124" stroke="#172C51" stroke-width="4.58333" stroke-miterlimit="8" fill="#FFFFFF"/><rect x="2909.5" y="241.5" width="19" height="124" stroke="#FFFFFF" stroke-width="4.58333" stroke-miterlimit="8" fill="#FFFFFF"/><rect x="2886.5" y="293.5" width="23" height="16.9998" stroke="#FFFFFF" stroke-width="4.58333" stroke-miterlimit="8" fill="#FFFFFF"/><rect x="2922.5" y="315.5" width="20" height="16.9998" stroke="#172C51" stroke-width="4.58333" stroke-miterlimit="8" fill="#FF0000"/><rect x="2922.5" y="273.5" width="20" height="16.9998" stroke="#172C51" stroke-width="4.58333" stroke-miterlimit="8" fill="#92D050"/><rect x="2767.5" y="241.5" width="92.0002" height="124" stroke="#172C51" stroke-width="4.58333" stroke-miterlimit="8" fill="#FFFFFF"/><rect x="2790.5" y="241.5" width="17.9998" height="124" stroke="#FFFFFF" stroke-width="4.58333" stroke-miterlimit="8" fill="#FFFFFF"/><rect x="2767.5" y="293.5" width="23" height="16.9998" stroke="#FFFFFF" stroke-width="4.58333" stroke-miterlimit="8" fill="#FFFFFF"/><rect x="2803.5" y="315.5" width="19" height="16.9998" stroke="#172C51" stroke-width="4.58333" stroke-miterlimit="8" fill="#FF0000"/><rect x="2803.5" y="273.5" width="19" height="16.9998" stroke="#172C51" stroke-width="4.58333" stroke-miterlimit="8" fill="#92D050"/><rect x="2647.5" y="241.5" width="91.9998" height="124" stroke="#172C51" stroke-width="4.58333" stroke-miterlimit="8" fill="#FFFFFF"/><rect x="2670.5" y="241.5" width="17.9998" height="124" stroke="#FFFFFF" stroke-width="4.58333" stroke-miterlimit="8" fill="#FFFFFF"/><rect x="2647.5" y="293.5" width="23" height="16.9998" stroke="#FFFFFF" stroke-width="4.58333" stroke-miterlimit="8" fill="#FFFFFF"/><rect x="2683.5" y="315.5" width="20" height="16.9998" stroke="#172C51" stroke-width="4.58333" stroke-miterlimit="8" fill="#FF0000"/><rect x="2683.5" y="273.5" width="20" height="16.9998" stroke="#172C51" stroke-width="4.58333" stroke-miterlimit="8" fill="#92D050"/><rect x="2527.5" y="241.5" width="92.9998" height="124" stroke="#172C51" stroke-width="4.58333" stroke-miterlimit="8" fill="#FFFFFF"/><rect x="2550.5" y="241.5" width="19" height="124" stroke="#FFFFFF" stroke-width="4.58333" stroke-miterlimit="8" fill="#FFFFFF"/><rect x="2527.5" y="293.5" width="23" height="16.9998" stroke="#FFFFFF" stroke-width="4.58333" stroke-miterlimit="8" fill="#FFFFFF"/><rect x="2563.5" y="315.5" width="20.0002" height="16.9998" stroke="#172C51" stroke-width="4.58333" stroke-miterlimit="8" fill="#FF0000"/><rect x="2563.5" y="273.5" width="20.0002" height="16.9998" stroke="#172C51" stroke-width="4.58333" stroke-miterlimit="8" fill="#92D050"/><rect x="2408.5" y="241.5" width="91.9998" height="124" stroke="#172C51" stroke-width="4.58333" stroke-miterlimit="8" fill="#FFFFFF"/><rect x="2431.5" y="241.5" width="18.0002" height="124" stroke="#FFFFFF" stroke-width="4.58333" stroke-miterlimit="8" fill="#FFFFFF"/><rect x="2408.5" y="293.5" width="22.9998" height="16.9998" stroke="#FFFFFF" stroke-width="4.58333" stroke-miterlimit="8" fill="#FFFFFF"/><rect x="2444.5" y="315.5" width="20" height="16.9998" stroke="#172C51" stroke-width="4.58333" stroke-miterlimit="8" fill="#FF0000"/><rect x="2444.5" y="273.5" width="20" height="16.9998" stroke="#172C51" stroke-width="4.58333" stroke-miterlimit="8" fill="#92D050"/><rect x="2288.5" y="241.5" width="93.0002" height="124" stroke="#172C51" stroke-width="4.58333" stroke-miterlimit="8" fill="#FFFFFF"/><rect x="2311.5" y="241.5" width="19.0002" height="124" stroke="#FFFFFF" stroke-width="4.58333" stroke-miterlimit="8" fill="#FFFFFF"/><rect x="2288.5" y="293.5" width="23" height="16.9998" stroke="#FFFFFF" stroke-width="4.58333" stroke-miterlimit="8" fill="#FFFFFF"/><rect x="2324.5" y="315.5" width="20" height="16.9998" stroke="#172C51" stroke-width="4.58333" stroke-miterlimit="8" fill="#FF0000"/><rect x="2324.5" y="273.5" width="20" height="16.9998" stroke="#172C51" stroke-width="4.58333" stroke-miterlimit="8" fill="#92D050"/><text font-family="Calibri,Calibri_MSFontService,sans-serif" font-weight="400" font-size="55" transform="matrix(1 0 0 1 2305.39 208)">A4</text><text font-family="Calibri,Calibri_MSFontService,sans-serif" font-weight="400" font-size="55" transform="matrix(1 0 0 1 2422.15 208)">A3</text><text font-family="Calibri,Calibri_MSFontService,sans-serif" font-weight="400" font-size="55" transform="matrix(1 0 0 1 2542.47 208)">A2</text><text font-family="Calibri,Calibri_MSFontService,sans-serif" font-weight="400" font-size="55" transform="matrix(1 0 0 1 2659.15 208)">A1</text><text font-family="Calibri,Calibri_MSFontService,sans-serif" font-weight="400" font-size="55" transform="matrix(1 0 0 1 2773.4 208)">M1</text><text font-family="Calibri,Calibri_MSFontService,sans-serif" font-weight="400" font-size="55" transform="matrix(1 0 0 1 2895.78 208)">M2</text><text font-family="Calibri,Calibri_MSFontService,sans-serif" font-weight="400" font-size="55" transform="matrix(1 0 0 1 3090.71 208)">9V</text><rect x="3008.5" y="178.5" width="36" height="41.9999" stroke="#767171" stroke-width="4.58333" stroke-miterlimit="8" fill="#767171"/><rect x="2218.5" y="178.5" width="36.9998" height="41.9999" stroke="#767171" stroke-width="4.58333" stroke-miterlimit="8" fill="#767171"/><path d="M3067.17 846C3051.61 846 3039 833.389 3039 817.833L3039 698.167C3039 682.611 3051.61 670 3067.17 670L3179.83 670C3195.39 670 3208 682.611 3208 698.167L3208 817.833C3208 833.389 3195.39 846 3179.83 846Z" fill="#AFABAB" fill-rule="evenodd"/><text font-family="Calibri,Calibri_MSFontService,sans-serif" font-weight="400" font-size="55" transform="matrix(-1.83697e-16 -1 1 -1.83697e-16 3144.56 808)">USB</text><path d="M2102.5 526.5C2102.5 485.631 2136.75 452.5 2179 452.5 2221.25 452.5 2255.5 485.631 2255.5 526.5 2255.5 567.369 2221.25 600.5 2179 600.5 2136.75 600.5 2102.5 567.369 2102.5 526.5Z" stroke="#767171" stroke-width="4.58333" stroke-miterlimit="8" fill="#767171" fill-rule="evenodd"/><path d="M3007.5 523C3007.5 482.407 3041.75 449.5 3084 449.5 3126.25 449.5 3160.5 482.407 3160.5 523 3160.5 563.593 3126.25 596.5 3084 596.5 3041.75 596.5 3007.5 563.593 3007.5 523Z" stroke="#767171" stroke-width="4.58333" stroke-miterlimit="8" fill="#767171" fill-rule="evenodd"/><rect x="2425.5" y="421.5" width="411" height="198" stroke="#767171" stroke-width="4.58333" stroke-miterlimit="8" fill="#767171"/><g><g><g><g clip-path="url(#clip1)"><path d="M383.511 343.894C396.378 346.771 407.302 351.789 416.486 358.789 427.343 349.14 440.157 342.048 454.538 336.899 468.92 331.754 484.866 328.548 501.992 326.674 486.843 325.816 471.837 325.806 457.017 327.636 442.198 329.464 427.563 333.135 413.155 339.63 412.564 339.898 411.567 340.028 410.572 340.041 409.575 340.052 408.575 339.944 407.979 339.732 397.638 336.046 386.598 334.858 375.023 335.451 363.449 336.044 351.341 338.413 338.868 341.845 355.829 340.281 370.643 341.018 383.511 343.894" fill="#9DC3E6" fill-rule="evenodd" transform="matrix(1.00751 0 0 1 2210.1 167.601)"/></g><g><path d="M586.428 383.038C586.428 374.372 581.665 370.039 572.138 370.039 566.411 370.039 561.662 371.745 557.891 375.158 555.28 371.745 550.829 370.039 544.539 370.039 539.167 370.039 534.686 371.434 531.095 374.223 530.828 372.858 530.499 371.419 530.115 369.906L519.208 371.819C520.038 374.61 520.454 377.473 520.454 380.41 520.454 382.103 520.379 383.35 520.232 384.15L513.777 418.606 525.13 418.606 531.495 384.506C532.565 383.141 533.996 381.932 535.791 380.878 537.586 379.825 539.197 379.297 540.621 379.297 545.34 379.297 547.7 380.842 547.7 383.928 547.7 384.314 547.67 384.669 547.61 384.996L541.289 418.606 552.685 418.606 559.051 384.373C559.941 383.126 561.291 381.968 563.102 380.9 564.911 379.832 566.588 379.297 568.132 379.297 572.495 379.297 574.676 381.362 574.676 385.486 574.676 386.554 574.588 387.564 574.411 388.512L568.757 418.606 580.153 418.606 585.984 387.355C586.277 385.753 586.428 384.314 586.428 383.038M513.822 370.884C510.676 370.321 508.495 370.039 507.278 370.039 502.498 370.039 498.137 371.715 494.19 375.07L494.947 370.929 483.773 370.929 474.87 418.606 486.044 418.606 491.073 391.673C491.697 388.439 493.203 385.568 495.592 383.06 497.98 380.552 500.613 379.297 503.494 379.297 505.512 379.297 507.842 380.277 510.483 382.236ZM454.839 380.01C452.969 392.386 450.84 400.548 448.452 404.494 446.062 408.441 443.266 410.414 440.06 410.414 435.015 410.414 432.493 407.848 432.493 402.714 432.493 396.51 433.976 391.028 436.944 386.264 439.913 381.502 443.889 379.12 448.876 379.12 450.745 379.12 452.733 379.417 454.839 380.01M467.26 372.265C463.699 370.781 457.896 370.039 449.853 370.039 441.513 370.039 434.608 373.267 429.131 379.72 423.657 386.176 420.919 393.929 420.919 402.981 420.919 408.174 422.335 412.224 425.168 415.133 428.004 418.042 432.002 419.496 437.166 419.496 442.833 419.496 447.569 417.61 451.368 413.842 452.375 417.018 453.919 418.606 455.996 418.606L462.941 418.606C461.931 416.173 461.426 411.691 461.426 405.162 461.426 403.826 461.53 402.609 461.738 401.511ZM420.784 370.929 408.987 370.929 395.231 397.505 387.353 370.929 383.345 370.929 367.009 397.193 362.246 370.929 350.939 370.929 360.332 419.496 364.427 419.496 382.277 391.941 390.602 419.496 394.608 419.496ZM346.933 354.681C345.596 354.057 343.267 353.501 339.943 353.011 336.62 352.522 333.889 352.278 331.753 352.278 325.312 352.278 320.103 354.029 316.127 357.53 312.15 361.032 310.162 365.779 310.162 371.775 310.162 373.318 310.37 374.818 310.785 376.271 311.2 377.726 311.823 379.142 312.655 380.522 313.486 381.902 314.28 382.978 315.036 383.75 315.794 384.521 317.24 385.768 319.377 387.489L326.365 393.053C330.165 396.022 332.064 398.737 332.064 401.199 332.064 403.692 331.018 405.615 328.925 406.965 326.833 408.313 324.199 408.988 321.025 408.988 315.771 408.988 311.157 407.49 307.179 404.492L303.44 415.935C308.634 418.457 314.153 419.719 320 419.719 327.123 419.719 332.917 418.042 337.383 414.688 341.85 411.334 344.083 406.675 344.083 400.71 344.083 399.168 343.86 397.653 343.415 396.169 342.97 394.686 342.302 393.216 341.412 391.763 340.522 390.308 339.676 389.173 338.874 388.357 338.073 387.541 336.633 386.242 334.557 384.461L327.835 378.763C324.036 375.587 322.136 372.857 322.136 370.571 322.136 365.17 325.712 362.469 332.866 362.469 336.427 362.469 339.928 363.732 343.37 366.253ZM274.42 405.529C274.42 409.968 275.562 413.39 277.848 415.793 280.134 418.2 283.402 419.402 287.654 419.402 291.934 419.402 295.229 419.003 297.541 418.206L297.541 409.036C295.469 410.339 293.236 410.991 290.844 410.991 288.452 410.991 286.778 410.36 285.821 409.096 284.865 407.834 284.386 405.675 284.386 402.619L284.386 383.921 296.106 383.921 296.106 375.909 284.386 375.909 284.386 363.551 274.42 367.218 274.42 375.909 269.477 375.909 269.477 383.921 274.42 383.921ZM269.478 359.964C266.076 358.927 263.193 358.409 260.828 358.409 256.256 358.409 252.529 360.017 249.645 363.233 246.761 366.449 245.214 370.674 245.001 375.91L238.742 375.91 238.742 384.122 244.96 384.122 244.96 418.606 254.928 418.606 254.928 384.122 263.617 384.122 263.617 375.91 254.767 375.91C254.741 375.565 254.728 375.219 254.728 374.874 254.728 372.509 255.386 370.515 256.701 368.893 258.017 367.273 259.618 366.462 261.505 366.462 262.674 366.462 264.348 366.821 266.528 367.538Z" fill="#9DC3E6" transform="matrix(1.00751 0 0 1 2210.1 167.601)"/></g></g></g></g><path d="M2425 462 2835.39 462" stroke="#FFC000" stroke-width="2.29167" stroke-miterlimit="8" fill="none" fill-rule="evenodd"/><text fill="#FFC000" font-family="Calibri,Calibri_MSFontService,sans-serif" font-weight="400" font-size="37" transform="matrix(1 0 0 1 2583.54 454)">online</text><text fill="#FFC000" font-family="Calibri,Calibri_MSFontService,sans-serif" font-weight="400" font-size="37" transform="matrix(1 0 0 1 2788.16 454)">K1</text><g><g><g><g clip-path="url(#clip2)"><path d="M383.51 343.893C396.377 346.77 407.301 351.788 416.484 358.787 427.341 349.139 440.155 342.047 454.537 336.898 468.918 331.753 484.864 328.547 501.99 326.673 486.841 325.815 471.835 325.805 457.016 327.635 442.196 329.463 427.562 333.134 413.153 339.629 412.563 339.897 411.565 340.027 410.571 340.039 409.573 340.05 408.573 339.943 407.977 339.731 397.637 336.044 386.596 334.857 375.022 335.45 363.448 336.043 351.34 338.412 338.867 341.844 355.828 340.28 370.642 341.016 383.51 343.893" fill="#C9D58F" fill-rule="evenodd" transform="matrix(1.00751 0 0 1 2236.1 669.602)"/></g><g><path d="M586.427 383.037C586.427 374.37 581.663 370.038 572.136 370.038 566.409 370.038 561.66 371.744 557.89 375.157 555.278 371.744 550.828 370.038 544.537 370.038 539.165 370.038 534.684 371.432 531.093 374.222 530.826 372.857 530.497 371.418 530.113 369.904L519.206 371.818C520.036 374.608 520.452 377.471 520.452 380.409 520.452 382.102 520.378 383.348 520.231 384.148L513.775 418.604 525.128 418.604 531.493 384.505C532.563 383.14 533.994 381.93 535.789 380.877 537.584 379.824 539.195 379.296 540.62 379.296 545.338 379.296 547.698 380.84 547.698 383.927 547.698 384.313 547.668 384.668 547.608 384.995L541.288 418.604 552.684 418.604 559.049 384.372C559.939 383.125 561.289 381.967 563.1 380.899 564.91 379.831 566.586 379.296 568.13 379.296 572.493 379.296 574.674 381.36 574.674 385.485 574.674 386.553 574.586 387.562 574.409 388.511L568.755 418.604 580.151 418.604 585.982 387.354C586.276 385.751 586.427 384.313 586.427 383.037M513.82 370.883C510.674 370.319 508.493 370.038 507.277 370.038 502.496 370.038 498.135 371.714 494.188 375.068L494.946 370.928 483.772 370.928 474.868 418.604 486.043 418.604 491.072 391.672C491.695 388.437 493.201 385.566 495.591 383.058 497.979 380.551 500.612 379.296 503.492 379.296 505.51 379.296 507.84 380.276 510.481 382.235ZM454.837 380.009C452.968 392.385 450.838 400.546 448.45 404.492 446.061 408.44 443.265 410.413 440.059 410.413 435.013 410.413 432.492 407.847 432.492 402.713 432.492 396.509 433.975 391.027 436.943 386.263 439.912 381.5 443.888 379.119 448.875 379.119 450.743 379.119 452.731 379.416 454.837 380.009M467.258 372.264C463.697 370.779 457.895 370.038 449.852 370.038 441.512 370.038 434.606 373.265 429.129 379.719 423.655 386.174 420.918 393.928 420.918 402.979 420.918 408.173 422.334 412.223 425.167 415.132 428.003 418.041 432.001 419.494 437.164 419.494 442.832 419.494 447.567 417.608 451.366 413.84 452.373 417.016 453.918 418.604 455.994 418.604L462.939 418.604C461.929 416.171 461.425 411.689 461.425 405.161 461.425 403.824 461.528 402.608 461.736 401.51ZM420.783 370.928 408.985 370.928 395.23 397.504 387.351 370.928 383.344 370.928 367.007 397.192 362.245 370.928 350.937 370.928 360.33 419.494 364.426 419.494 382.276 391.94 390.601 419.494 394.607 419.494ZM346.931 354.679C345.595 354.056 343.266 353.5 339.942 353.01 336.619 352.521 333.888 352.276 331.751 352.276 325.311 352.276 320.102 354.028 316.126 357.529 312.149 361.031 310.161 365.777 310.161 371.774 310.161 373.317 310.369 374.817 310.784 376.27 311.199 377.724 311.822 379.141 312.654 380.521 313.485 381.9 314.278 382.977 315.035 383.748 315.793 384.52 317.239 385.766 319.376 387.488L326.364 393.052C330.163 396.021 332.063 398.735 332.063 401.198 332.063 403.691 331.017 405.614 328.924 406.963 326.832 408.312 324.198 408.987 321.024 408.987 315.77 408.987 311.156 407.489 307.178 404.491L303.439 415.933C308.633 418.456 314.152 419.717 319.999 419.717 327.122 419.717 332.916 418.041 337.382 414.687 341.849 411.333 344.082 406.674 344.082 400.708 344.082 399.167 343.859 397.652 343.414 396.168 342.969 394.684 342.301 393.215 341.411 391.762 340.521 390.307 339.675 389.172 338.873 388.356 338.072 387.539 336.632 386.241 334.556 384.46L327.834 378.761C324.035 375.585 322.135 372.856 322.135 370.57 322.135 365.169 325.711 362.468 332.864 362.468 336.425 362.468 339.927 363.731 343.369 366.252ZM274.419 405.528C274.419 409.967 275.561 413.389 277.847 415.792 280.133 418.199 283.401 419.4 287.653 419.4 291.933 419.4 295.228 419.002 297.54 418.204L297.54 409.034C295.468 410.338 293.235 410.99 290.843 410.99 288.451 410.99 286.777 410.358 285.821 409.094 284.864 407.833 284.385 405.673 284.385 402.617L284.385 383.92 296.105 383.92 296.105 375.908 284.385 375.908 284.385 363.55 274.419 367.217 274.419 375.908 269.476 375.908 269.476 383.92 274.419 383.92ZM269.477 359.963C266.075 358.926 263.192 358.408 260.827 358.408 256.255 358.408 252.528 360.016 249.645 363.231 246.76 366.448 245.213 370.673 245 375.909L238.741 375.909 238.741 384.121 244.96 384.121 244.96 418.604 254.927 418.604 254.927 384.121 263.616 384.121 263.616 375.909 254.766 375.909C254.74 375.564 254.727 375.218 254.727 374.872 254.727 372.507 255.385 370.514 256.7 368.892 258.016 367.271 259.617 366.46 261.505 366.46 262.673 366.46 264.347 366.82 266.527 367.537Z" fill="#C9D58F" transform="matrix(1.00751 0 0 1 2236.1 669.602)"/></g></g></g></g><path d="M2288.5 736.5 2288.5 1106.19" stroke="#C9D58F" stroke-width="6.875" stroke-miterlimit="8" fill="none" fill-rule="evenodd"/><path d="M3002.5 736.5 3002.5 1106.19" stroke="#C9D58F" stroke-width="6.875" stroke-miterlimit="8" fill="none" fill-rule="evenodd"/><path d="M2288.5 736.5 3001.97 738.405" stroke="#C9D58F" stroke-width="6.875" stroke-miterlimit="8" fill="none" fill-rule="evenodd"/><path d="M2444.5 811C2444.5 799.678 2453.68 790.5 2465 790.5 2476.32 790.5 2485.5 799.678 2485.5 811 2485.5 822.322 2476.32 831.5 2465 831.5 2453.68 831.5 2444.5 822.322 2444.5 811Z" stroke="#767171" stroke-width="4.58333" stroke-miterlimit="8" fill="#767171" fill-rule="evenodd"/><path d="M2550.5 811C2550.5 799.678 2559.68 790.5 2571 790.5 2582.32 790.5 2591.5 799.678 2591.5 811 2591.5 822.322 2582.32 831.5 2571 831.5 2559.68 831.5 2550.5 822.322 2550.5 811Z" stroke="#767171" stroke-width="4.58333" stroke-miterlimit="8" fill="#767171" fill-rule="evenodd"/><path d="M2656.5 811C2656.5 799.678 2665.68 790.5 2677 790.5 2688.32 790.5 2697.5 799.678 2697.5 811 2697.5 822.322 2688.32 831.5 2677 831.5 2665.68 831.5 2656.5 822.322 2656.5 811Z" stroke="#767171" stroke-width="4.58333" stroke-miterlimit="8" fill="#767171" fill-rule="evenodd"/><path d="M2762.5 811C2762.5 799.678 2771.68 790.5 2783 790.5 2794.32 790.5 2803.5 799.678 2803.5 811 2803.5 822.322 2794.32 831.5 2783 831.5 2771.68 831.5 2762.5 822.322 2762.5 811Z" stroke="#767171" stroke-width="4.58333" stroke-miterlimit="8" fill="#767171" fill-rule="evenodd"/><path d="M2338.5 811C2338.5 799.678 2347.68 790.5 2359 790.5 2370.32 790.5 2379.5 799.678 2379.5 811 2379.5 822.322 2370.32 831.5 2359 831.5 2347.68 831.5 2338.5 822.322 2338.5 811Z" stroke="#767171" stroke-width="4.58333" stroke-miterlimit="8" fill="#767171" fill-rule="evenodd"/><path d="M2867.5 811C2867.5 799.678 2876.9 790.5 2888.5 790.5 2900.1 790.5 2909.5 799.678 2909.5 811 2909.5 822.322 2900.1 831.5 2888.5 831.5 2876.9 831.5 2867.5 822.322 2867.5 811Z" stroke="#767171" stroke-width="4.58333" stroke-miterlimit="8" fill="#767171" fill-rule="evenodd"/><text font-family="Calibri,Calibri_MSFontService,sans-serif" font-weight="400" font-size="55" transform="matrix(-1.83697e-16 -1 1 -1.83697e-16 2372.27 987)">RESET</text><text font-family="Calibri,Calibri_MSFontService,sans-serif" font-weight="400" font-size="55" transform="matrix(-1.83697e-16 -1 1 -1.83697e-16 2480.33 901)">S1</text><text font-family="Calibri,Calibri_MSFontService,sans-serif" font-weight="400" font-size="55" transform="matrix(-1.83697e-16 -1 1 -1.83697e-16 2586.46 901)">S2</text><text font-family="Calibri,Calibri_MSFontService,sans-serif" font-weight="400" font-size="55" transform="matrix(-1.83697e-16 -1 1 -1.83697e-16 2693.9 901)">S3</text><text font-family="Calibri,Calibri_MSFontService,sans-serif" font-weight="400" font-size="55" transform="matrix(-1.83697e-16 -1 1 -1.83697e-16 2801.94 901)">S4</text><text font-family="Calibri,Calibri_MSFontService,sans-serif" font-weight="400" font-size="55" transform="matrix(-1.83697e-16 -1 1 -1.83697e-16 2905.67 922)">ON</text><text font-family="Calibri,Calibri_MSFontService,sans-serif" font-weight="400" font-size="55" transform="matrix(1 0 0 1 2153.27 543)">J1</text><text font-family="Calibri,Calibri_MSFontService,sans-serif" font-weight="400" font-size="55" transform="matrix(1 0 0 1 3067.24 537)">J2</text><text font-family="Calibri,Calibri_MSFontService,sans-serif" font-weight="400" font-size="55" transform="matrix(-1.83697e-16 -1 1 -1.83697e-16 2023.99 986)">Extension</text><rect x="2047.5" y="686.5" width="26.0002" height="410" stroke="#767171" stroke-width="4.58333" stroke-miterlimit="8" fill="#767171"/><text font-family="Calibri,Calibri_MSFontService,sans-serif" font-weight="400" font-size="55" transform="matrix(1 0 0 1 2527.52 1328)">Extension</text><rect x="2565.5" y="1358.5" width="135" height="481" stroke="#000000" stroke-width="11.4583" stroke-miterlimit="8" fill="#595959"/><rect x="2642" y="1380" width="39.9998" height="33" fill="#FFF2CC"/><rect x="2642" y="1446" width="39.9998" height="33" fill="#FFF2CC"/><rect x="2642" y="1513" width="39.9998" height="33" fill="#FFF2CC"/><rect x="2642" y="1579" width="39.9998" height="33" fill="#FFF2CC"/><rect x="2642" y="1646" width="39.9998" height="33" fill="#FFF2CC"/><rect x="2642" y="1712" width="39.9998" height="33" fill="#FFF2CC"/><rect x="2642" y="1778" width="39.9998" height="33" fill="#FFF2CC"/><rect x="2583" y="1380" width="40.0002" height="33" fill="#FFF2CC"/><rect x="2583" y="1447" width="40.0002" height="33" fill="#FFF2CC"/><rect x="2583" y="1513" width="40.0002" height="33" fill="#FFF2CC"/><rect x="2583" y="1578" width="40.0002" height="33" fill="#FFF2CC"/><rect x="2583" y="1646" width="40.0002" height="33" fill="#FFF2CC"/><rect x="2583" y="1712" width="40.0002" height="33" fill="#FFF2CC"/><rect x="2583" y="1778" width="40.0002" height="33" fill="#FFF2CC"/><rect x="2539.5" y="1557.5" width="27.9998" height="77" stroke="#FFFFFF" stroke-width="4.58333" stroke-miterlimit="8" fill="#FFFFFF"/><text font-family="Calibri,Calibri_MSFontService,sans-serif" font-weight="400" font-size="55" transform="matrix(1 0 0 1 2446.37 1414)">GND</text><text font-family="Calibri,Calibri_MSFontService,sans-serif" font-weight="400" font-size="55" transform="matrix(1 0 0 1 2385.47 1550)">SDA 3V</text><text font-family="Calibri,Calibri_MSFontService,sans-serif" font-weight="400" font-size="55" transform="matrix(1 0 0 1 2717.09 1550)">SDC 3V</text><text font-family="Calibri,Calibri_MSFontService,sans-serif" font-weight="400" font-size="55" transform="matrix(1 0 0 1 2388.22 1815)">SDA 5V</text><text font-family="Calibri,Calibri_MSFontService,sans-serif" font-weight="400" font-size="55" transform="matrix(1 0 0 1 2717.09 1815)">SDC 5V</text><text font-family="Calibri,Calibri_MSFontService,sans-serif" font-weight="400" font-size="55" transform="matrix(1 0 0 1 2489.57 1613)">3V</text><text font-family="Calibri,Calibri_MSFontService,sans-serif" font-weight="400" font-size="55" transform="matrix(1 0 0 1 2718.01 1614)">5V</text><text font-family="Calibri,Calibri_MSFontService,sans-serif" font-weight="400" font-size="55" transform="matrix(1 0 0 1 2444.05 1680)">GND</text><text font-family="Calibri,Calibri_MSFontService,sans-serif" font-weight="400" font-size="32" transform="matrix(1 0 0 1 2596.21 1409)">1</text><text font-family="Calibri,Calibri_MSFontService,sans-serif" font-weight="400" font-size="32" transform="matrix(1 0 0 1 2596.21 1539)">5</text><text font-family="Calibri,Calibri_MSFontService,sans-serif" font-weight="400" font-size="32" transform="matrix(1 0 0 1 2654.77 1540)">6</text><text font-family="Calibri,Calibri_MSFontService,sans-serif" font-weight="400" font-size="32" transform="matrix(1 0 0 1 2595.24 1607)">7</text><text font-family="Calibri,Calibri_MSFontService,sans-serif" font-weight="400" font-size="32" transform="matrix(1 0 0 1 2652.94 1606)">8</text><text font-family="Calibri,Calibri_MSFontService,sans-serif" font-weight="400" font-size="32" transform="matrix(1 0 0 1 2586.35 1805)">13</text><text font-family="Calibri,Calibri_MSFontService,sans-serif" font-weight="400" font-size="32" transform="matrix(1 0 0 1 2644.92 1805)">14</text><text font-family="Calibri,Calibri_MSFontService,sans-serif" font-weight="400" font-size="32" transform="matrix(1 0 0 1 2594.37 1673)">9</text></g></svg>