<svg width="1607" height="1875" xmlns="http://www.w3.org/2000/svg" xmlns:xlink="http://www.w3.org/1999/xlink" xml:space="preserve" overflow="hidden"><defs><clipPath id="clip0"><rect x="102" y="88" width="1607" height="1875"/></clipPath></defs><g clip-path="url(#clip0)" transform="translate(-102 -88)"><rect x="102" y="88" width="1607" height="1875" fill="#FFFFFF"/><path d="M653 823.667C653 804.521 668.521 789 687.667 789L852.333 789C871.479 789 887 804.521 887 823.667L887 962.333C887 981.479 871.479 997 852.333 997L687.667 997C668.521 997 653 981.479 653 962.333Z" fill="#AFABAB" fill-rule="evenodd"/><rect x="442.5" y="213.5" width="920" height="764" stroke="#A6A6A6" stroke-width="4.58333" stroke-miterlimit="8" fill="#A6A6A6" fill-opacity="0.2"/><path d="M536.5 471C536.5 453.051 551.051 438.5 569 438.5 586.949 438.5 601.5 453.051 601.5 471 601.5 488.949 586.949 503.5 569 503.5 551.051 503.5 536.5 488.949 536.5 471Z" stroke="#767171" stroke-width="4.58333" stroke-miterlimit="8" fill="#767171" fill-rule="evenodd"/><text font-family="Calibri,Calibri_MSFontService,sans-serif" font-weight="400" font-size="55" transform="matrix(-1.83697e-16 -1 1 -1.83697e-16 516.33 540)">RESET</text><path d="M1202.5 295.5C1202.5 259.602 1231.6 230.5 1267.5 230.5 1303.4 230.5 1332.5 259.602 1332.5 295.5 1332.5 331.399 1303.4 360.5 1267.5 360.5 1231.6 360.5 1202.5 331.399 1202.5 295.5Z" stroke="#767171" stroke-width="4.58333" stroke-miterlimit="8" fill="#FF0000" fill-rule="evenodd"/><text font-family="Calibri,Calibri_MSFontService,sans-serif" font-weight="400" font-size="55" transform="matrix(1 0 0 1 1211.78 312)">LED2</text><path d="M471.5 295.5C471.5 259.602 500.602 230.5 536.5 230.5 572.399 230.5 601.5 259.602 601.5 295.5 601.5 331.399 572.399 360.5 536.5 360.5 500.602 360.5 471.5 331.399 471.5 295.5Z" stroke="#767171" stroke-width="4.58333" stroke-miterlimit="8" fill="#FF0000" fill-rule="evenodd"/><text font-family="Calibri,Calibri_MSFontService,sans-serif" font-weight="400" font-size="55" transform="matrix(1 0 0 1 477.703 314)">LED1</text><text font-family="Calibri,Calibri_MSFontService,sans-serif" font-weight="400" font-size="55" transform="matrix(1 0 0 1 726.539 910)">USB</text><rect x="949.5" y="836.5" width="124" height="92.0001" stroke="#172C51" stroke-width="4.58333" stroke-miterlimit="8" fill="#FFFFFF"/><rect x="949.5" y="887.5" width="124" height="17.9999" stroke="#FFFFFF" stroke-width="4.58333" stroke-miterlimit="8" fill="#FFFFFF"/><rect x="1001.5" y="905.5" width="16.0002" height="23.0001" stroke="#FFFFFF" stroke-width="4.58333" stroke-miterlimit="8" fill="#FFFFFF"/><rect x="1023.5" y="873.5" width="16.0002" height="18.9999" stroke="#172C51" stroke-width="4.58333" stroke-miterlimit="8" fill="#4472C4"/><rect x="981.5" y="873.5" width="16.0002" height="18.9999" stroke="#172C51" stroke-width="4.58333" stroke-miterlimit="8" fill="#4472C4"/><rect x="477.5" y="837.5" width="124" height="93.0002" stroke="#172C51" stroke-width="4.58333" stroke-miterlimit="8" fill="#FFFFFF"/><rect x="477.5" y="888.5" width="124" height="18.9999" stroke="#FFFFFF" stroke-width="4.58333" stroke-miterlimit="8" fill="#FFFFFF"/><rect x="529.5" y="907.5" width="17.0002" height="23.0001" stroke="#FFFFFF" stroke-width="4.58333" stroke-miterlimit="8" fill="#FFFFFF"/><rect x="551.5" y="874.5" width="17.0002" height="19.9999" stroke="#172C51" stroke-width="4.58333" stroke-miterlimit="8" fill="#FF0000"/><rect x="509.5" y="874.5" width="17.0002" height="19.9999" stroke="#172C51" stroke-width="4.58333" stroke-miterlimit="8" fill="#92D050"/><rect x="1190.5" y="836.5" width="124" height="92.0001" stroke="#172C51" stroke-width="4.58333" stroke-miterlimit="8" fill="#FFFFFF"/><rect x="1190.5" y="887.5" width="124" height="17.9999" stroke="#FFFFFF" stroke-width="4.58333" stroke-miterlimit="8" fill="#FFFFFF"/><rect x="1242.5" y="905.5" width="16.9999" height="23.0001" stroke="#FFFFFF" stroke-width="4.58333" stroke-miterlimit="8" fill="#FFFFFF"/><rect x="1264.5" y="873.5" width="15.9998" height="18.9999" stroke="#172C51" stroke-width="4.58333" stroke-miterlimit="8" fill="#4472C4"/><rect x="1222.5" y="873.5" width="16.0001" height="18.9999" stroke="#172C51" stroke-width="4.58333" stroke-miterlimit="8" fill="#4472C4"/><rect x="477.5" y="639.5" width="124" height="93.0002" stroke="#172C51" stroke-width="4.58333" stroke-miterlimit="8" fill="#FFFFFF"/><rect x="477.5" y="690.5" width="124" height="18.9999" stroke="#FFFFFF" stroke-width="4.58333" stroke-miterlimit="8" fill="#FFFFFF"/><rect x="529.5" y="709.5" width="17.0002" height="23.0001" stroke="#FFFFFF" stroke-width="4.58333" stroke-miterlimit="8" fill="#FFFFFF"/><rect x="551.5" y="676.5" width="17.0002" height="19.9999" stroke="#172C51" stroke-width="4.58333" stroke-miterlimit="8" fill="#FF0000"/><rect x="509.5" y="676.5" width="17.0002" height="19.9999" stroke="#172C51" stroke-width="4.58333" stroke-miterlimit="8" fill="#92D050"/><rect x="720.5" y="638.5" width="124" height="92.0001" stroke="#172C51" stroke-width="4.58333" stroke-miterlimit="8" fill="#FFFFFF"/><rect x="720.5" y="688.5" width="124" height="18.9999" stroke="#FFFFFF" stroke-width="4.58333" stroke-miterlimit="8" fill="#FFFFFF"/><rect x="772.5" y="707.5" width="17.0002" height="23.0001" stroke="#FFFFFF" stroke-width="4.58333" stroke-miterlimit="8" fill="#FFFFFF"/><rect x="794.5" y="674.5" width="17.0002" height="19.9999" stroke="#172C51" stroke-width="4.58333" stroke-miterlimit="8" fill="#FF0000"/><rect x="752.5" y="674.5" width="17.0002" height="19.9999" stroke="#172C51" stroke-width="4.58333" stroke-miterlimit="8" fill="#92D050"/><rect x="949.5" y="639.5" width="124" height="93.0002" stroke="#172C51" stroke-width="4.58333" stroke-miterlimit="8" fill="#FFFFFF"/><rect x="949.5" y="690.5" width="124" height="18.9999" stroke="#FFFFFF" stroke-width="4.58333" stroke-miterlimit="8" fill="#FFFFFF"/><rect x="1001.5" y="709.5" width="16.0002" height="23.0001" stroke="#FFFFFF" stroke-width="4.58333" stroke-miterlimit="8" fill="#FFFFFF"/><rect x="1023.5" y="676.5" width="16.0002" height="19.9999" stroke="#172C51" stroke-width="4.58333" stroke-miterlimit="8" fill="#FF0000"/><rect x="981.5" y="676.5" width="16.0002" height="19.9999" stroke="#172C51" stroke-width="4.58333" stroke-miterlimit="8" fill="#92D050"/><rect x="1191.5" y="638.5" width="125" height="92.0001" stroke="#172C51" stroke-width="4.58333" stroke-miterlimit="8" fill="#FFFFFF"/><rect x="1191.5" y="688.5" width="125" height="18.9999" stroke="#FFFFFF" stroke-width="4.58333" stroke-miterlimit="8" fill="#FFFFFF"/><rect x="1244.5" y="707.5" width="16.0001" height="23.0001" stroke="#FFFFFF" stroke-width="4.58333" stroke-miterlimit="8" fill="#FFFFFF"/><rect x="1265.5" y="674.5" width="17.0002" height="19.9999" stroke="#172C51" stroke-width="4.58333" stroke-miterlimit="8" fill="#FF0000"/><rect x="1224.5" y="674.5" width="16.0001" height="19.9999" stroke="#172C51" stroke-width="4.58333" stroke-miterlimit="8" fill="#92D050"/><text font-family="Calibri,Calibri_MSFontService,sans-serif" font-weight="400" font-size="55" transform="matrix(1 0 0 1 516.341 829)">9V</text><text font-family="Calibri,Calibri_MSFontService,sans-serif" font-weight="400" font-size="55" transform="matrix(1 0 0 1 972.701 827)">M1</text><text font-family="Calibri,Calibri_MSFontService,sans-serif" font-weight="400" font-size="55" transform="matrix(1 0 0 1 1212.82 827)">M2</text><text font-family="Calibri,Calibri_MSFontService,sans-serif" font-weight="400" font-size="55" transform="matrix(1 0 0 1 508.27 621)">A1</text><text font-family="Calibri,Calibri_MSFontService,sans-serif" font-weight="400" font-size="55" transform="matrix(1 0 0 1 752.681 620)">A2</text><text font-family="Calibri,Calibri_MSFontService,sans-serif" font-weight="400" font-size="55" transform="matrix(1 0 0 1 978.916 621)">A3</text><text font-family="Calibri,Calibri_MSFontService,sans-serif" font-weight="400" font-size="55" transform="matrix(1 0 0 1 1221.83 616)">A4</text><rect x="628" y="501" width="540" height="65.0003" fill="#595959"/><rect x="651" y="513" width="33" height="41.0002" fill="#FFF2CC"/><rect x="717" y="513" width="33" height="41.0002" fill="#FFF2CC"/><rect x="783" y="513" width="33" height="41.0002" fill="#FFF2CC"/><rect x="850" y="513" width="33" height="41.0002" fill="#FFF2CC"/><rect x="916" y="513" width="33" height="41.0002" fill="#FFF2CC"/><rect x="982" y="513" width="33" height="41.0002" fill="#FFF2CC"/><rect x="1049" y="513" width="33" height="41.0002" fill="#FFF2CC"/><rect x="1115" y="513" width="33" height="41.0002" fill="#FFF2CC"/><rect x="628" y="224" width="197" height="219" fill="#595959"/><rect x="644" y="241" width="33" height="189" fill="#FFF2CC"/><rect x="709" y="241" width="33" height="189" fill="#FFF2CC"/><rect x="773" y="241" width="33" height="189" fill="#FFF2CC"/><rect x="631" y="379" width="188" height="33" fill="#3B3838"/><rect x="980" y="221" width="198" height="219" fill="#595959"/><rect x="997" y="238" width="33" height="189" fill="#FFF2CC"/><rect x="1061" y="238" width="33" height="189" fill="#FFF2CC"/><rect x="1126" y="238" width="33" height="189" fill="#FFF2CC"/><rect x="984" y="376" width="188" height="33" fill="#3B3838"/><text font-family="Calibri,Calibri_MSFontService,sans-serif" font-weight="400" font-size="55" transform="matrix(1 0 0 1 662.333 200)">Servo</text><text font-family="Calibri,Calibri_MSFontService,sans-serif" font-weight="400" font-size="55" transform="matrix(1 0 0 1 1016.93 201)">ftPixel</text><text font-family="Calibri,Calibri_MSFontService,sans-serif" font-weight="400" font-size="55" transform="matrix(1 0 0 1 790.867 488)">Extension</text><rect x="623" y="1234" width="198" height="219" fill="#595959"/><rect x="639" y="1252" width="33" height="188" fill="#FFF2CC"/><rect x="704" y="1252" width="33" height="188" fill="#FFF2CC"/><rect x="769" y="1252" width="33" height="188" fill="#FFF2CC"/><rect x="627" y="1389" width="188" height="33" fill="#3B3838"/><text font-family="Calibri,Calibri_MSFontService,sans-serif" font-weight="400" font-size="55" transform="matrix(-1.83697e-16 -1 1 -1.83697e-16 670.584 1226)">SERVO</text><text font-family="Calibri,Calibri_MSFontService,sans-serif" font-weight="400" font-size="55" transform="matrix(-1.83697e-16 -1 1 -1.83697e-16 736.554 1222)">+5V</text><text font-family="Calibri,Calibri_MSFontService,sans-serif" font-weight="400" font-size="55" transform="matrix(-1.83697e-16 -1 1 -1.83697e-16 804.585 1223)">GND</text><rect x="973" y="1240" width="197" height="219" fill="#595959"/><rect x="989" y="1257" width="33" height="188" fill="#FFF2CC"/><rect x="1054" y="1257" width="33" height="188" fill="#FFF2CC"/><rect x="1118" y="1257" width="33" height="188" fill="#FFF2CC"/><rect x="976" y="1394" width="188" height="33" fill="#3B3838"/><text font-family="Calibri,Calibri_MSFontService,sans-serif" font-weight="400" font-size="55" transform="matrix(-1.83697e-16 -1 1 -1.83697e-16 1020.68 1225)">LED</text><text font-family="Calibri,Calibri_MSFontService,sans-serif" font-weight="400" font-size="55" transform="matrix(-1.83697e-16 -1 1 -1.83697e-16 1085.98 1227)">+5V</text><text font-family="Calibri,Calibri_MSFontService,sans-serif" font-weight="400" font-size="55" transform="matrix(-1.83697e-16 -1 1 -1.83697e-16 1154.01 1229)">GND</text><rect x="626" y="1536" width="540" height="64.0002" fill="#595959"/><rect x="649" y="1548" width="33" height="40.0002" fill="#FFF2CC"/><rect x="715" y="1548" width="33" height="40.0002" fill="#FFF2CC"/><rect x="781" y="1548" width="33" height="40.0002" fill="#FFF2CC"/><rect x="848" y="1548" width="33" height="40.0002" fill="#FFF2CC"/><rect x="914" y="1548" width="33" height="40.0002" fill="#FFF2CC"/><rect x="980" y="1548" width="33" height="40.0002" fill="#FFF2CC"/><rect x="1047" y="1548" width="33" height="40.0002" fill="#FFF2CC"/><rect x="1113" y="1548" width="33" height="40.0002" fill="#FFF2CC"/><text font-family="Calibri,Calibri_MSFontService,sans-serif" font-weight="400" font-size="55" transform="matrix(1 0 0 1 788.793 1522)">Extension</text><text font-family="Calibri,Calibri_MSFontService,sans-serif" font-weight="400" font-size="55" transform="matrix(-1.83697e-16 -1 1 -1.83697e-16 682.618 1714)">3.3V</text><text font-family="Calibri,Calibri_MSFontService,sans-serif" font-weight="400" font-size="55" transform="matrix(-1.83697e-16 -1 1 -1.83697e-16 748.447 1720)">GND</text><text font-family="Calibri,Calibri_MSFontService,sans-serif" font-weight="400" font-size="55" transform="matrix(-1.83697e-16 -1 1 -1.83697e-16 813.664 1711)">SDC</text><text font-family="Calibri,Calibri_MSFontService,sans-serif" font-weight="400" font-size="55" transform="matrix(-1.83697e-16 -1 1 -1.83697e-16 881.467 1713)">SDA</text></g></svg>