<svg width="1607" height="1875" xmlns="http://www.w3.org/2000/svg" xmlns:xlink="http://www.w3.org/1999/xlink" xml:space="preserve" overflow="hidden"><defs><filter id="fx0" x="-10%" y="-10%" width="120%" height="120%" filterUnits="userSpaceOnUse" primitiveUnits="userSpaceOnUse"><feComponentTransfer color-interpolation-filters="sRGB"><feFuncR type="discrete" tableValues="0 0"/><feFuncG type="discrete" tableValues="0 0"/><feFuncB type="discrete" tableValues="0 0"/><feFuncA type="linear" slope="0.4" intercept="0"/></feComponentTransfer><feGaussianBlur stdDeviation="6.11111 6.11111"/></filter><filter id="fx1" x="-10%" y="-10%" width="120%" height="120%" filterUnits="userSpaceOnUse" primitiveUnits="userSpaceOnUse"><feComponentTransfer color-interpolation-filters="sRGB"><feFuncR type="discrete" tableValues="0 0"/><feFuncG type="discrete" tableValues="0 0"/><feFuncB type="discrete" tableValues="0 0"/><feFuncA type="linear" slope="0.4" intercept="0"/></feComponentTransfer><feGaussianBlur stdDeviation="6.11111 6.11111"/></filter><clipPath id="clip2"><rect x="1828" y="88" width="1607" height="1875"/></clipPath></defs><g clip-path="url(#clip2)" transform="translate(-1828 -88)"><rect x="1828" y="88" width="1607" height="1875" fill="#FFFFFF"/><rect x="1879.5" y="222.5" width="1514" height="1513" stroke="#A6A6A6" stroke-width="4.58333" stroke-miterlimit="8" fill="#A6A6A6" fill-opacity="0.588235"/><path d="M2347.5 1540C2347.5 1528.68 2356.68 1519.5 2368 1519.5 2379.32 1519.5 2388.5 1528.68 2388.5 1540 2388.5 1551.32 2379.32 1560.5 2368 1560.5 2356.68 1560.5 2347.5 1551.32 2347.5 1540Z" stroke="#C00000" stroke-width="4.58333" stroke-miterlimit="8" fill="#C00000" fill-rule="evenodd"/><path d="M2484.5 1540C2484.5 1528.68 2493.9 1519.5 2505.5 1519.5 2517.1 1519.5 2526.5 1528.68 2526.5 1540 2526.5 1551.32 2517.1 1560.5 2505.5 1560.5 2493.9 1560.5 2484.5 1551.32 2484.5 1540Z" stroke="#C00000" stroke-width="4.58333" stroke-miterlimit="8" fill="#C00000" fill-rule="evenodd"/><path d="M2622.5 1540C2622.5 1528.68 2631.9 1519.5 2643.5 1519.5 2655.1 1519.5 2664.5 1528.68 2664.5 1540 2664.5 1551.32 2655.1 1560.5 2643.5 1560.5 2631.9 1560.5 2622.5 1551.32 2622.5 1540Z" stroke="#C00000" stroke-width="4.58333" stroke-miterlimit="8" fill="#C00000" fill-rule="evenodd"/><path d="M2759.5 1540C2759.5 1528.68 2768.9 1519.5 2780.5 1519.5 2792.1 1519.5 2801.5 1528.68 2801.5 1540 2801.5 1551.32 2792.1 1560.5 2780.5 1560.5 2768.9 1560.5 2759.5 1551.32 2759.5 1540Z" stroke="#C00000" stroke-width="4.58333" stroke-miterlimit="8" fill="#C00000" fill-rule="evenodd"/><path d="M2897.5 1540C2897.5 1528.68 2906.9 1519.5 2918.5 1519.5 2930.1 1519.5 2939.5 1528.68 2939.5 1540 2939.5 1551.32 2930.1 1560.5 2918.5 1560.5 2906.9 1560.5 2897.5 1551.32 2897.5 1540Z" stroke="#C00000" stroke-width="4.58333" stroke-miterlimit="8" fill="#C00000" fill-rule="evenodd"/><path d="M2347.5 1650C2347.5 1638.68 2356.68 1629.5 2368 1629.5 2379.32 1629.5 2388.5 1638.68 2388.5 1650 2388.5 1661.32 2379.32 1670.5 2368 1670.5 2356.68 1670.5 2347.5 1661.32 2347.5 1650Z" stroke="#00B050" stroke-width="4.58333" stroke-miterlimit="8" fill="#00B050" fill-rule="evenodd"/><path d="M2484.5 1650C2484.5 1638.68 2493.9 1629.5 2505.5 1629.5 2517.1 1629.5 2526.5 1638.68 2526.5 1650 2526.5 1661.32 2517.1 1670.5 2505.5 1670.5 2493.9 1670.5 2484.5 1661.32 2484.5 1650Z" stroke="#00B050" stroke-width="4.58333" stroke-miterlimit="8" fill="#00B050" fill-rule="evenodd"/><path d="M2622.5 1650C2622.5 1638.68 2631.9 1629.5 2643.5 1629.5 2655.1 1629.5 2664.5 1638.68 2664.5 1650 2664.5 1661.32 2655.1 1670.5 2643.5 1670.5 2631.9 1670.5 2622.5 1661.32 2622.5 1650Z" stroke="#00B050" stroke-width="4.58333" stroke-miterlimit="8" fill="#00B050" fill-rule="evenodd"/><path d="M2760.5 1650C2760.5 1638.68 2769.68 1629.5 2781 1629.5 2792.32 1629.5 2801.5 1638.68 2801.5 1650 2801.5 1661.32 2792.32 1670.5 2781 1670.5 2769.68 1670.5 2760.5 1661.32 2760.5 1650Z" stroke="#00B050" stroke-width="4.58333" stroke-miterlimit="8" fill="#00B050" fill-rule="evenodd"/><path d="M2897.5 1650C2897.5 1638.68 2906.9 1629.5 2918.5 1629.5 2930.1 1629.5 2939.5 1638.68 2939.5 1650 2939.5 1661.32 2930.1 1670.5 2918.5 1670.5 2906.9 1670.5 2897.5 1661.32 2897.5 1650Z" stroke="#00B050" stroke-width="4.58333" stroke-miterlimit="8" fill="#00B050" fill-rule="evenodd"/><path d="M3176.5 1540C3176.5 1528.68 3185.68 1519.5 3197 1519.5 3208.32 1519.5 3217.5 1528.68 3217.5 1540 3217.5 1551.32 3208.32 1560.5 3197 1560.5 3185.68 1560.5 3176.5 1551.32 3176.5 1540Z" stroke="#00B050" stroke-width="4.58333" stroke-miterlimit="8" fill="#00B050" fill-rule="evenodd"/><path d="M3176.5 1650C3176.5 1638.68 3185.68 1629.5 3197 1629.5 3208.32 1629.5 3217.5 1638.68 3217.5 1650 3217.5 1661.32 3208.32 1670.5 3197 1670.5 3185.68 1670.5 3176.5 1661.32 3176.5 1650Z" stroke="#767171" stroke-width="4.58333" stroke-miterlimit="8" fill="#767171" fill-rule="evenodd"/><path d="M3176.5 1320C3176.5 1308.68 3185.68 1299.5 3197 1299.5 3208.32 1299.5 3217.5 1308.68 3217.5 1320 3217.5 1331.32 3208.32 1340.5 3197 1340.5 3185.68 1340.5 3176.5 1331.32 3176.5 1320Z" stroke="#0070C0" stroke-width="4.58333" stroke-miterlimit="8" fill="#0070C0" fill-rule="evenodd"/><path d="M3176.5 1430C3176.5 1418.68 3185.68 1409.5 3197 1409.5 3208.32 1409.5 3217.5 1418.68 3217.5 1430 3217.5 1441.32 3208.32 1450.5 3197 1450.5 3185.68 1450.5 3176.5 1441.32 3176.5 1430Z" stroke="#C00000" stroke-width="4.58333" stroke-miterlimit="8" fill="#C00000" fill-rule="evenodd"/><path d="M3297.5 1540C3297.5 1528.68 3306.68 1519.5 3318 1519.5 3329.32 1519.5 3338.5 1528.68 3338.5 1540 3338.5 1551.32 3329.32 1560.5 3318 1560.5 3306.68 1560.5 3297.5 1551.32 3297.5 1540Z" stroke="#00B050" stroke-width="4.58333" stroke-miterlimit="8" fill="#00B050" fill-rule="evenodd"/><path d="M3297.5 1650C3297.5 1638.68 3306.68 1629.5 3318 1629.5 3329.32 1629.5 3338.5 1638.68 3338.5 1650 3338.5 1661.32 3329.32 1670.5 3318 1670.5 3306.68 1670.5 3297.5 1661.32 3297.5 1650Z" stroke="#767171" stroke-width="4.58333" stroke-miterlimit="8" fill="#767171" fill-rule="evenodd"/><path d="M3297.5 1320C3297.5 1308.68 3306.68 1299.5 3318 1299.5 3329.32 1299.5 3338.5 1308.68 3338.5 1320 3338.5 1331.32 3329.32 1340.5 3318 1340.5 3306.68 1340.5 3297.5 1331.32 3297.5 1320Z" stroke="#0070C0" stroke-width="4.58333" stroke-miterlimit="8" fill="#0070C0" fill-rule="evenodd"/><path d="M3297.5 1430C3297.5 1418.68 3306.68 1409.5 3318 1409.5 3329.32 1409.5 3338.5 1418.68 3338.5 1430 3338.5 1441.32 3329.32 1450.5 3318 1450.5 3306.68 1450.5 3297.5 1441.32 3297.5 1430Z" stroke="#C00000" stroke-width="4.58333" stroke-miterlimit="8" fill="#C00000" fill-rule="evenodd"/><path d="M1947.5 1540C1947.5 1528.68 1956.9 1519.5 1968.5 1519.5 1980.1 1519.5 1989.5 1528.68 1989.5 1540 1989.5 1551.32 1980.1 1560.5 1968.5 1560.5 1956.9 1560.5 1947.5 1551.32 1947.5 1540Z" stroke="#00B050" stroke-width="4.58333" stroke-miterlimit="8" fill="#00B050" fill-rule="evenodd"/><path d="M1947.5 1650C1947.5 1638.68 1956.9 1629.5 1968.5 1629.5 1980.1 1629.5 1989.5 1638.68 1989.5 1650 1989.5 1661.32 1980.1 1670.5 1968.5 1670.5 1956.9 1670.5 1947.5 1661.32 1947.5 1650Z" stroke="#767171" stroke-width="4.58333" stroke-miterlimit="8" fill="#767171" fill-rule="evenodd"/><path d="M1947.5 1320C1947.5 1308.68 1956.9 1299.5 1968.5 1299.5 1980.1 1299.5 1989.5 1308.68 1989.5 1320 1989.5 1331.32 1980.1 1340.5 1968.5 1340.5 1956.9 1340.5 1947.5 1331.32 1947.5 1320Z" stroke="#0070C0" stroke-width="4.58333" stroke-miterlimit="8" fill="#0070C0" fill-rule="evenodd"/><path d="M1947.5 1430C1947.5 1418.68 1956.9 1409.5 1968.5 1409.5 1980.1 1409.5 1989.5 1418.68 1989.5 1430 1989.5 1441.32 1980.1 1450.5 1968.5 1450.5 1956.9 1450.5 1947.5 1441.32 1947.5 1430Z" stroke="#C00000" stroke-width="4.58333" stroke-miterlimit="8" fill="#C00000" fill-rule="evenodd"/><path d="M2068.5 1540C2068.5 1528.68 2077.9 1519.5 2089.5 1519.5 2101.1 1519.5 2110.5 1528.68 2110.5 1540 2110.5 1551.32 2101.1 1560.5 2089.5 1560.5 2077.9 1560.5 2068.5 1551.32 2068.5 1540Z" stroke="#00B050" stroke-width="4.58333" stroke-miterlimit="8" fill="#00B050" fill-rule="evenodd"/><path d="M2068.5 1650C2068.5 1638.68 2077.9 1629.5 2089.5 1629.5 2101.1 1629.5 2110.5 1638.68 2110.5 1650 2110.5 1661.32 2101.1 1670.5 2089.5 1670.5 2077.9 1670.5 2068.5 1661.32 2068.5 1650Z" stroke="#767171" stroke-width="4.58333" stroke-miterlimit="8" fill="#767171" fill-rule="evenodd"/><path d="M2068.5 1320C2068.5 1308.68 2077.9 1299.5 2089.5 1299.5 2101.1 1299.5 2110.5 1308.68 2110.5 1320 2110.5 1331.32 2101.1 1340.5 2089.5 1340.5 2077.9 1340.5 2068.5 1331.32 2068.5 1320Z" stroke="#0070C0" stroke-width="4.58333" stroke-miterlimit="8" fill="#0070C0" fill-rule="evenodd"/><path d="M2068.5 1430C2068.5 1418.68 2077.9 1409.5 2089.5 1409.5 2101.1 1409.5 2110.5 1418.68 2110.5 1430 2110.5 1441.32 2101.1 1450.5 2089.5 1450.5 2077.9 1450.5 2068.5 1441.32 2068.5 1430Z" stroke="#C00000" stroke-width="4.58333" stroke-miterlimit="8" fill="#C00000" fill-rule="evenodd"/><rect x="2344" y="1299" width="601" height="131" fill="#595959"/><rect x="2360" y="1309" width="33" height="39.9999" fill="#FFF2CC"/><rect x="2425" y="1309" width="33" height="39.9999" fill="#FFF2CC"/><rect x="2490" y="1309" width="33" height="39.9999" fill="#FFF2CC"/><rect x="2344" y="1362" width="198" height="65" fill="#595959"/><rect x="2360" y="1373" width="33" height="40.9999" fill="#FFF2CC"/><rect x="2425" y="1373" width="33" height="40.9999" fill="#FFF2CC"/><rect x="2490" y="1373" width="33" height="40.9999" fill="#FFF2CC"/><rect x="2747" y="1300" width="198" height="65" fill="#595959"/><rect x="2763" y="1312" width="33" height="39.9999" fill="#FFF2CC"/><rect x="2828" y="1312" width="33" height="39.9999" fill="#FFF2CC"/><rect x="2893" y="1312" width="33" height="39.9999" fill="#FFF2CC"/><rect x="2747" y="1365" width="198" height="65" fill="#595959"/><rect x="2763" y="1376" width="33" height="39.9999" fill="#FFF2CC"/><rect x="2828" y="1376" width="33" height="39.9999" fill="#FFF2CC"/><rect x="2893" y="1376" width="33" height="39.9999" fill="#FFF2CC"/><rect x="2592" y="1310" width="33" height="39.9999" fill="#FFF2CC"/><rect x="2657" y="1310" width="33" height="39.9999" fill="#FFF2CC"/><rect x="2592" y="1374" width="33" height="39.9999" fill="#FFF2CC"/><rect x="2657" y="1374" width="33" height="39.9999" fill="#FFF2CC"/><text font-family="Calibri,Calibri_MSFontService,sans-serif" font-weight="400" font-size="55" transform="matrix(1 0 0 1 2604.17 1613)">EM</text><text font-family="Calibri,Calibri_MSFontService,sans-serif" font-weight="400" font-size="55" transform="matrix(1 0 0 1 2876.58 1613)">ES1</text><text font-family="Calibri,Calibri_MSFontService,sans-serif" font-weight="400" font-size="55" transform="matrix(1 0 0 1 2736.33 1613)">ES2</text><text font-family="Calibri,Calibri_MSFontService,sans-serif" font-weight="400" font-size="55" transform="matrix(1 0 0 1 2461.33 1613)">ES3</text><text font-family="Calibri,Calibri_MSFontService,sans-serif" font-weight="400" font-size="55" transform="matrix(1 0 0 1 2326.58 1613)">ES4</text><text font-family="Calibri,Calibri_MSFontService,sans-serif" font-weight="400" font-size="55" transform="matrix(-1.83697e-16 -1 1 -1.83697e-16 3331.51 1233)">M1</text><text font-family="Calibri,Calibri_MSFontService,sans-serif" font-weight="400" font-size="55" transform="matrix(-1.83697e-16 -1 1 -1.83697e-16 3216.01 1233)">M2</text><text font-family="Calibri,Calibri_MSFontService,sans-serif" font-weight="400" font-size="55" transform="matrix(-1.83697e-16 -1 1 -1.83697e-16 2102.95 1231)">M3</text><text font-family="Calibri,Calibri_MSFontService,sans-serif" font-weight="400" font-size="55" transform="matrix(-1.83697e-16 -1 1 -1.83697e-16 1987.45 1231)">M4</text><text font-family="Calibri,Calibri_MSFontService,sans-serif" font-weight="400" font-size="55" transform="matrix(1 0 0 1 2568.51 1475)">SERVO</text><rect x="2068.5" y="201.5" width="143" height="17.0002" stroke="#767171" stroke-width="4.58333" stroke-miterlimit="8" fill="#767171"/><text font-family="Calibri,Calibri_MSFontService,sans-serif" font-weight="400" font-size="55" transform="matrix(1 0 0 1 2102.15 178)">12V</text><path d="M3121 201C3121 198.791 3122.79 197 3125 197L3305 197C3307.21 197 3309 198.791 3309 201L3309 217C3309 219.209 3307.21 221 3305 221L3125 221C3122.79 221 3121 219.209 3121 217Z" fill="#AFABAB" fill-rule="evenodd"/><text font-family="Calibri,Calibri_MSFontService,sans-serif" font-weight="400" font-size="55" transform="matrix(1 0 0 1 3176.45 184)">USB</text><g filter="url(#fx0)" transform="translate(1869 1071)"><g><path d="M20.2229 22.2228 460.536 22.2231" stroke="#000000" stroke-width="5" stroke-miterlimit="8" fill="none" fill-rule="evenodd"/></g></g><path d="M1879.5 1083.5 2319.81 1083.5" stroke="#000000" stroke-width="4.58333" stroke-miterlimit="8" fill="none" fill-rule="evenodd"/><g filter="url(#fx1)" transform="translate(2919 1067)"><g><path d="M20.2227 22.2225 483.916 22.2229" stroke="#000000" stroke-width="5" stroke-miterlimit="8" fill="none" fill-rule="evenodd"/></g></g><path d="M2929.5 1079.5 3393.19 1079.5" stroke="#000000" stroke-width="4.58333" stroke-miterlimit="8" fill="none" fill-rule="evenodd"/><path d="M1935.5 1015C1932.46 1015 1930 1012.54 1930 1009.5L1930 987.5C1930 984.463 1932.46 982 1935.5 982L2314.5 982C2317.54 982 2320 984.463 2320 987.5L2320 1009.5C2320 1012.54 2317.54 1015 2314.5 1015Z" fill="#D9D9D9" fill-rule="evenodd"/><path d="M1935.5 940C1932.46 940 1930 937.538 1930 934.5L1930 912.5C1930 909.463 1932.46 907 1935.5 907L2314.5 907C2317.54 907 2320 909.463 2320 912.5L2320 934.5C2320 937.538 2317.54 940 2314.5 940Z" fill="#D9D9D9" fill-rule="evenodd"/><path d="M1935.33 865C1932.39 865 1930 862.612 1930 859.667L1930 838.334C1930 835.388 1932.39 833 1935.33 833L2314.67 833C2317.61 833 2320 835.388 2320 838.334L2320 859.667C2320 862.612 2317.61 865 2314.67 865Z" fill="#D9D9D9" fill-rule="evenodd"/><path d="M1935.33 790C1932.39 790 1930 787.612 1930 784.667L1930 763.334C1930 760.388 1932.39 758 1935.33 758L2314.67 758C2317.61 758 2320 760.388 2320 763.334L2320 784.667C2320 787.612 2317.61 790 2314.67 790Z" fill="#D9D9D9" fill-rule="evenodd"/><path d="M2933.5 1015C2930.46 1015 2928 1012.54 2928 1009.5L2928 987.5C2928 984.463 2930.46 982 2933.5 982L3312.5 982C3315.54 982 3318 984.463 3318 987.5L3318 1009.5C3318 1012.54 3315.54 1015 3312.5 1015Z" fill="#D9D9D9" fill-rule="evenodd"/><path d="M2933.5 940C2930.46 940 2928 937.538 2928 934.5L2928 912.5C2928 909.463 2930.46 907 2933.5 907L3312.5 907C3315.54 907 3318 909.463 3318 912.5L3318 934.5C3318 937.538 3315.54 940 3312.5 940Z" fill="#D9D9D9" fill-rule="evenodd"/><path d="M2933.5 865C2930.46 865 2928 862.537 2928 859.5L2928 837.5C2928 834.462 2930.46 832 2933.5 832L3312.5 832C3315.54 832 3318 834.462 3318 837.5L3318 859.5C3318 862.537 3315.54 865 3312.5 865Z" fill="#D9D9D9" fill-rule="evenodd"/><path d="M2933.33 790C2930.39 790 2928 787.612 2928 784.667L2928 763.334C2928 760.388 2930.39 758 2933.33 758L3312.67 758C3315.61 758 3318 760.388 3318 763.334L3318 784.667C3318 787.612 3315.61 790 3312.67 790Z" fill="#D9D9D9" fill-rule="evenodd"/><rect x="2330.5" y="218.5" width="596" height="1024" stroke="#A6A6A6" stroke-width="4.58333" stroke-miterlimit="8" fill="#A6A6A6" fill-opacity="0.74902"/><rect x="2768.5" y="576.5" width="156" height="260" stroke="#767171" stroke-width="4.58333" stroke-miterlimit="8" fill="#00B050"/><path d="M2857 803C2857 817.359 2845.36 829 2831 829 2816.64 829 2805 817.359 2805 803 2805 788.641 2816.64 777 2831 777 2845.36 777 2857 788.641 2857 803Z" fill="#AFABAB" fill-rule="evenodd"/><path d="M2857 739C2857 753.359 2845.36 765 2831 765 2816.64 765 2805 753.359 2805 739 2805 724.641 2816.64 713 2831 713 2845.36 713 2857 724.641 2857 739Z" fill="#AFABAB" fill-rule="evenodd"/><path d="M2857 676C2857 690.359 2845.36 702 2831 702 2816.64 702 2805 690.359 2805 676 2805 661.641 2816.64 650 2831 650 2845.36 650 2857 661.641 2857 676Z" fill="#AFABAB" fill-rule="evenodd"/><path d="M2857 609C2857 623.359 2845.36 635 2831 635 2816.64 635 2805 623.359 2805 609 2805 594.641 2816.64 583 2831 583 2845.36 583 2857 594.641 2857 609Z" fill="#AFABAB" fill-rule="evenodd"/><rect x="2892.5" y="770.5" width="32" height="65.0003" stroke="#767171" stroke-width="4.58333" stroke-miterlimit="8" fill="#00B050"/><rect x="2892.5" y="576.5" width="32" height="64.9999" stroke="#767171" stroke-width="4.58333" stroke-miterlimit="8" fill="#00B050"/><rect x="2892.5" y="640.5" width="32" height="65" stroke="#767171" stroke-width="4.58333" stroke-miterlimit="8" fill="#00B050"/><rect x="2892.5" y="705.5" width="32" height="64.9999" stroke="#767171" stroke-width="4.58333" stroke-miterlimit="8" fill="#00B050"/><path d="M0 0 36.7475 36.7475" stroke="#BFBFBF" stroke-width="9.16667" stroke-miterlimit="8" fill="none" fill-rule="evenodd" transform="matrix(-1 1.22465e-16 1.22465e-16 1 2849.25 784.5)"/><path d="M2849.25 758.248 2812.5 721.5" stroke="#BFBFBF" stroke-width="9.16667" stroke-miterlimit="8" fill="none" fill-rule="evenodd"/><path d="M2857.47 676.5 2805.5 676.5" stroke="#BFBFBF" stroke-width="9.16667" stroke-miterlimit="8" fill="none" fill-rule="evenodd"/><path d="M0 0 0.000360892 51.9685" stroke="#BFBFBF" stroke-width="9.16667" stroke-miterlimit="8" fill="none" fill-rule="evenodd" transform="matrix(-1 1.22465e-16 1.22465e-16 1 2831.5 583.5)"/><rect x="2675" y="666" width="65" height="130" fill="#595959"/><rect x="2686" y="746" width="39.9998" height="33" fill="#FFF2CC"/><rect x="2686" y="682" width="39.9998" height="33" fill="#FFF2CC"/><text font-family="Calibri,Calibri_MSFontService,sans-serif" font-weight="400" font-size="55" transform="matrix(1 0 0 1 2946.55 821)">RS485B</text><text font-family="Calibri,Calibri_MSFontService,sans-serif" font-weight="400" font-size="55" transform="matrix(1 0 0 1 2944.24 630)">RS485A</text><text font-family="Calibri,Calibri_MSFontService,sans-serif" font-weight="400" font-size="55" transform="matrix(1 0 0 1 2946.55 694)">RS485B</text><text font-family="Calibri,Calibri_MSFontService,sans-serif" font-weight="400" font-size="55" transform="matrix(1 0 0 1 2944.24 760)">RS485A</text><text font-family="Calibri,Calibri_MSFontService,sans-serif" font-weight="400" font-size="55" transform="matrix(1 0 0 1 2943.51 898)">9V</text><path d="M2601.5 1098C2601.5 1080.05 2616.05 1065.5 2634 1065.5 2651.95 1065.5 2666.5 1080.05 2666.5 1098 2666.5 1115.95 2651.95 1130.5 2634 1130.5 2616.05 1130.5 2601.5 1115.95 2601.5 1098Z" stroke="#767171" stroke-width="4.58333" stroke-miterlimit="8" fill="#767171" fill-rule="evenodd"/><path d="M2388.5 1098.5C2388.5 1062.6 2417.6 1033.5 2453.5 1033.5 2489.4 1033.5 2518.5 1062.6 2518.5 1098.5 2518.5 1134.4 2489.4 1163.5 2453.5 1163.5 2417.6 1163.5 2388.5 1134.4 2388.5 1098.5Z" stroke="#767171" stroke-width="4.58333" stroke-miterlimit="8" fill="#FF0000" fill-rule="evenodd"/><path d="M2750.5 1102.5C2750.5 1066.6 2779.38 1037.5 2815 1037.5 2850.62 1037.5 2879.5 1066.6 2879.5 1102.5 2879.5 1138.4 2850.62 1167.5 2815 1167.5 2779.38 1167.5 2750.5 1138.4 2750.5 1102.5Z" stroke="#767171" stroke-width="4.58333" stroke-miterlimit="8" fill="#FF0000" fill-rule="evenodd"/><text font-family="Calibri,Calibri_MSFontService,sans-serif" font-weight="400" font-size="55" transform="matrix(1 0 0 1 2567.42 1043)">RESET</text><text font-family="Calibri,Calibri_MSFontService,sans-serif" font-weight="400" font-size="55" transform="matrix(1 0 0 1 2759.75 1120)">LED2</text><text font-family="Calibri,Calibri_MSFontService,sans-serif" font-weight="400" font-size="55" transform="matrix(1 0 0 1 2394.74 1117)">LED1</text><text font-family="Calibri,Calibri_MSFontService,sans-serif" font-weight="400" font-size="55" transform="matrix(-1.83697e-16 -1 1 -1.83697e-16 2657.71 800)">RS485</text><path d="M2527 272.5C2527 269.463 2529.46 267 2532.5 267L2554.5 267C2557.54 267 2560 269.463 2560 272.5L2560 846.5C2560 849.538 2557.54 852 2554.5 852L2532.5 852C2529.46 852 2527 849.538 2527 846.5Z" fill="#D9D9D9" fill-rule="evenodd"/><path d="M2460 272.5C2460 269.463 2462.46 267 2465.5 267L2487.5 267C2490.54 267 2493 269.463 2493 272.5L2493 846.5C2493 849.538 2490.54 852 2487.5 852L2465.5 852C2462.46 852 2460 849.538 2460 846.5Z" fill="#D9D9D9" fill-rule="evenodd"/><path d="M2763 298.334C2763 281.029 2777.03 267 2794.33 267L2919.67 267C2936.97 267 2951 281.029 2951 298.334L2951 443.666C2951 460.971 2936.97 475 2919.67 475L2794.33 475C2777.03 475 2763 460.971 2763 443.666Z" fill="#767171" fill-rule="evenodd"/><text font-family="Calibri,Calibri_MSFontService,sans-serif" font-weight="400" font-size="55" transform="matrix(1 0 0 1 2813.25 389)">USB</text><rect x="2769.5" y="851.5" width="156" height="130" stroke="#767171" stroke-width="4.58333" stroke-miterlimit="8" fill="#00B050"/><path d="M2858 948C2858 962.359 2846.36 974 2832 974 2817.64 974 2806 962.359 2806 948 2806 933.641 2817.64 922 2832 922 2846.36 922 2858 933.641 2858 948Z" fill="#92D050" fill-rule="evenodd"/><path d="M2858 884C2858 898.359 2846.36 910 2832 910 2817.64 910 2806 898.359 2806 884 2806 869.641 2817.64 858 2832 858 2846.36 858 2858 869.641 2858 884Z" fill="#FF0000" fill-rule="evenodd"/><rect x="2893.5" y="915.5" width="33" height="65" stroke="#767171" stroke-width="4.58333" stroke-miterlimit="8" fill="#00B050"/><rect x="2893.5" y="851.5" width="33" height="64.9999" stroke="#767171" stroke-width="4.58333" stroke-miterlimit="8" fill="#00B050"/><path d="M2671 272.334C2671 269.388 2673.39 267 2676.33 267L2697.67 267C2700.61 267 2703 269.388 2703 272.334L2703 631.666C2703 634.612 2700.61 637 2697.67 637L2676.33 637C2673.39 637 2671 634.612 2671 631.666Z" fill="#D9D9D9" fill-rule="evenodd"/><path d="M2604 272.334C2604 269.388 2606.39 267 2609.33 267L2630.67 267C2633.61 267 2636 269.388 2636 272.334L2636 631.666C2636 634.612 2633.61 637 2630.67 637L2609.33 637C2606.39 637 2604 634.612 2604 631.666Z" fill="#D9D9D9" fill-rule="evenodd"/><text font-family="Calibri,Calibri_MSFontService,sans-serif" font-weight="400" font-size="55" transform="matrix(1 0 0 1 2943.51 955)">GND</text></g></svg>