<svg width="1607" height="1875" xmlns="http://www.w3.org/2000/svg" xmlns:xlink="http://www.w3.org/1999/xlink" xml:space="preserve" overflow="hidden"><defs><clipPath id="clip0"><rect x="102" y="88" width="1607" height="1875"/></clipPath></defs><g clip-path="url(#clip0)" transform="translate(-102 -88)"><rect x="102" y="88" width="1607" height="1875" fill="#FFFFFF"/><rect x="150.5" y="218.5" width="1513" height="1513" stroke="#A6A6A6" stroke-width="4.58333" stroke-miterlimit="8" fill="#A6A6A6" fill-opacity="0.588235"/><rect x="806.5" y="197.5" width="143" height="16.9998" stroke="#767171" stroke-width="4.58333" stroke-miterlimit="8" fill="#767171"/><text font-family="Calibri,Calibri_MSFontService,sans-serif" font-weight="400" font-size="55" transform="matrix(1 0 0 1 851.803 183)">9V</text><path d="M274 198.833C274 196.716 275.716 195 277.833 195L458.167 195C460.284 195 462 196.716 462 198.833L462 214.167C462 216.284 460.284 218 458.167 218L277.833 218C275.716 218 274 216.284 274 214.167Z" fill="#AFABAB" fill-rule="evenodd"/><text font-family="Calibri,Calibri_MSFontService,sans-serif" font-weight="400" font-size="55" transform="matrix(1 0 0 1 329.712 190)">USB</text><path d="M1486.5 297C1486.5 308.322 1477.1 317.5 1465.5 317.5 1453.9 317.5 1444.5 308.322 1444.5 297 1444.5 285.678 1453.9 276.5 1465.5 276.5 1477.1 276.5 1486.5 285.678 1486.5 297Z" stroke="#C00000" stroke-width="4.58333" stroke-miterlimit="8" fill="#C00000" fill-rule="evenodd"/><path d="M1365.5 297C1365.5 308.322 1356.1 317.5 1344.5 317.5 1332.9 317.5 1323.5 308.322 1323.5 297 1323.5 285.678 1332.9 276.5 1344.5 276.5 1356.1 276.5 1365.5 285.678 1365.5 297Z" stroke="#00B050" stroke-width="4.58333" stroke-miterlimit="8" fill="#00B050" fill-rule="evenodd"/><path d="M209.5 1548C209.5 1536.68 218.902 1527.5 230.5 1527.5 242.098 1527.5 251.5 1536.68 251.5 1548 251.5 1559.32 242.098 1568.5 230.5 1568.5 218.902 1568.5 209.5 1559.32 209.5 1548Z" stroke="#C00000" stroke-width="4.58333" stroke-miterlimit="8" fill="#C00000" fill-rule="evenodd"/><path d="M209.5 1658C209.5 1646.68 218.902 1637.5 230.5 1637.5 242.098 1637.5 251.5 1646.68 251.5 1658 251.5 1669.32 242.098 1678.5 230.5 1678.5 218.902 1678.5 209.5 1669.32 209.5 1658Z" stroke="#C00000" stroke-width="4.58333" stroke-miterlimit="8" fill="#C00000" fill-rule="evenodd"/><path d="M209.5 1328C209.5 1316.68 218.902 1307.5 230.5 1307.5 242.098 1307.5 251.5 1316.68 251.5 1328 251.5 1339.32 242.098 1348.5 230.5 1348.5 218.902 1348.5 209.5 1339.32 209.5 1328Z" stroke="#C00000" stroke-width="4.58333" stroke-miterlimit="8" fill="#C00000" fill-rule="evenodd"/><path d="M209.5 1438C209.5 1426.68 218.902 1417.5 230.5 1417.5 242.098 1417.5 251.5 1426.68 251.5 1438 251.5 1449.32 242.098 1458.5 230.5 1458.5 218.902 1458.5 209.5 1449.32 209.5 1438Z" stroke="#C00000" stroke-width="4.58333" stroke-miterlimit="8" fill="#C00000" fill-rule="evenodd"/><path d="M347.5 1548C347.5 1536.68 356.678 1527.5 368 1527.5 379.322 1527.5 388.5 1536.68 388.5 1548 388.5 1559.32 379.322 1568.5 368 1568.5 356.678 1568.5 347.5 1559.32 347.5 1548Z" stroke="#00B050" stroke-width="4.58333" stroke-miterlimit="8" fill="#00B050" fill-rule="evenodd"/><path d="M347.5 1658C347.5 1646.68 356.678 1637.5 368 1637.5 379.322 1637.5 388.5 1646.68 388.5 1658 388.5 1669.32 379.322 1678.5 368 1678.5 356.678 1678.5 347.5 1669.32 347.5 1658Z" stroke="#00B050" stroke-width="4.58333" stroke-miterlimit="8" fill="#00B050" fill-rule="evenodd"/><path d="M347.5 1328C347.5 1316.68 356.678 1307.5 368 1307.5 379.322 1307.5 388.5 1316.68 388.5 1328 388.5 1339.32 379.322 1348.5 368 1348.5 356.678 1348.5 347.5 1339.32 347.5 1328Z" stroke="#00B050" stroke-width="4.58333" stroke-miterlimit="8" fill="#00B050" fill-rule="evenodd"/><path d="M347.5 1438C347.5 1426.68 356.678 1417.5 368 1417.5 379.322 1417.5 388.5 1426.68 388.5 1438 388.5 1449.32 379.322 1458.5 368 1458.5 356.678 1458.5 347.5 1449.32 347.5 1438Z" stroke="#00B050" stroke-width="4.58333" stroke-miterlimit="8" fill="#00B050" fill-rule="evenodd"/><path d="M206.5 1103C206.5 1091.68 215.678 1082.5 227 1082.5 238.322 1082.5 247.5 1091.68 247.5 1103 247.5 1114.32 238.322 1123.5 227 1123.5 215.678 1123.5 206.5 1114.32 206.5 1103Z" stroke="#C00000" stroke-width="4.58333" stroke-miterlimit="8" fill="#C00000" fill-rule="evenodd"/><path d="M206.5 1213C206.5 1201.68 215.678 1192.5 227 1192.5 238.322 1192.5 247.5 1201.68 247.5 1213 247.5 1224.32 238.322 1233.5 227 1233.5 215.678 1233.5 206.5 1224.32 206.5 1213Z" stroke="#C00000" stroke-width="4.58333" stroke-miterlimit="8" fill="#C00000" fill-rule="evenodd"/><path d="M206.5 883C206.5 871.678 215.678 862.5 227 862.5 238.322 862.5 247.5 871.678 247.5 883 247.5 894.322 238.322 903.5 227 903.5 215.678 903.5 206.5 894.322 206.5 883Z" stroke="#C00000" stroke-width="4.58333" stroke-miterlimit="8" fill="#C00000" fill-rule="evenodd"/><path d="M206.5 993C206.5 981.678 215.678 972.5 227 972.5 238.322 972.5 247.5 981.678 247.5 993 247.5 1004.32 238.322 1013.5 227 1013.5 215.678 1013.5 206.5 1004.32 206.5 993Z" stroke="#C00000" stroke-width="4.58333" stroke-miterlimit="8" fill="#C00000" fill-rule="evenodd"/><path d="M343.5 1103C343.5 1091.68 352.902 1082.5 364.5 1082.5 376.098 1082.5 385.5 1091.68 385.5 1103 385.5 1114.32 376.098 1123.5 364.5 1123.5 352.902 1123.5 343.5 1114.32 343.5 1103Z" stroke="#00B050" stroke-width="4.58333" stroke-miterlimit="8" fill="#00B050" fill-rule="evenodd"/><path d="M343.5 1213C343.5 1201.68 352.902 1192.5 364.5 1192.5 376.098 1192.5 385.5 1201.68 385.5 1213 385.5 1224.32 376.098 1233.5 364.5 1233.5 352.902 1233.5 343.5 1224.32 343.5 1213Z" stroke="#00B050" stroke-width="4.58333" stroke-miterlimit="8" fill="#00B050" fill-rule="evenodd"/><path d="M343.5 883C343.5 871.678 352.902 862.5 364.5 862.5 376.098 862.5 385.5 871.678 385.5 883 385.5 894.322 376.098 903.5 364.5 903.5 352.902 903.5 343.5 894.322 343.5 883Z" stroke="#00B050" stroke-width="4.58333" stroke-miterlimit="8" fill="#00B050" fill-rule="evenodd"/><path d="M343.5 993C343.5 981.678 352.902 972.5 364.5 972.5 376.098 972.5 385.5 981.678 385.5 993 385.5 1004.32 376.098 1013.5 364.5 1013.5 352.902 1013.5 343.5 1004.32 343.5 993Z" stroke="#00B050" stroke-width="4.58333" stroke-miterlimit="8" fill="#00B050" fill-rule="evenodd"/><path d="M1615.5 996.5C1615.5 1008.1 1606.1 1017.5 1594.5 1017.5 1582.9 1017.5 1573.5 1008.1 1573.5 996.5 1573.5 984.902 1582.9 975.5 1594.5 975.5 1606.1 975.5 1615.5 984.902 1615.5 996.5Z" stroke="#767171" stroke-width="4.58333" stroke-miterlimit="8" fill="#767171" fill-rule="evenodd"/><path d="M1615.5 886.5C1615.5 898.098 1606.1 907.5 1594.5 907.5 1582.9 907.5 1573.5 898.098 1573.5 886.5 1573.5 874.902 1582.9 865.5 1594.5 865.5 1606.1 865.5 1615.5 874.902 1615.5 886.5Z" stroke="#767171" stroke-width="4.58333" stroke-miterlimit="8" fill="#767171" fill-rule="evenodd"/><path d="M1615.5 1216.5C1615.5 1228.1 1606.1 1237.5 1594.5 1237.5 1582.9 1237.5 1573.5 1228.1 1573.5 1216.5 1573.5 1204.9 1582.9 1195.5 1594.5 1195.5 1606.1 1195.5 1615.5 1204.9 1615.5 1216.5Z" stroke="#767171" stroke-width="4.58333" stroke-miterlimit="8" fill="#767171" fill-rule="evenodd"/><path d="M1615.5 1106.5C1615.5 1118.1 1606.1 1127.5 1594.5 1127.5 1582.9 1127.5 1573.5 1118.1 1573.5 1106.5 1573.5 1094.9 1582.9 1085.5 1594.5 1085.5 1606.1 1085.5 1615.5 1094.9 1615.5 1106.5Z" stroke="#767171" stroke-width="4.58333" stroke-miterlimit="8" fill="#767171" fill-rule="evenodd"/><path d="M1478.5 996.5C1478.5 1008.1 1469.1 1017.5 1457.5 1017.5 1445.9 1017.5 1436.5 1008.1 1436.5 996.5 1436.5 984.902 1445.9 975.5 1457.5 975.5 1469.1 975.5 1478.5 984.902 1478.5 996.5Z" stroke="#767171" stroke-width="4.58333" stroke-miterlimit="8" fill="#767171" fill-rule="evenodd"/><path d="M1478.5 886.5C1478.5 898.098 1469.1 907.5 1457.5 907.5 1445.9 907.5 1436.5 898.098 1436.5 886.5 1436.5 874.902 1445.9 865.5 1457.5 865.5 1469.1 865.5 1478.5 874.902 1478.5 886.5Z" stroke="#767171" stroke-width="4.58333" stroke-miterlimit="8" fill="#767171" fill-rule="evenodd"/><path d="M1478.5 1216.5C1478.5 1228.1 1469.1 1237.5 1457.5 1237.5 1445.9 1237.5 1436.5 1228.1 1436.5 1216.5 1436.5 1204.9 1445.9 1195.5 1457.5 1195.5 1469.1 1195.5 1478.5 1204.9 1478.5 1216.5Z" stroke="#767171" stroke-width="4.58333" stroke-miterlimit="8" fill="#767171" fill-rule="evenodd"/><path d="M1478.5 1106.5C1478.5 1118.1 1469.1 1127.5 1457.5 1127.5 1445.9 1127.5 1436.5 1118.1 1436.5 1106.5 1436.5 1094.9 1445.9 1085.5 1457.5 1085.5 1469.1 1085.5 1478.5 1094.9 1478.5 1106.5Z" stroke="#767171" stroke-width="4.58333" stroke-miterlimit="8" fill="#767171" fill-rule="evenodd"/><path d="M1618.5 1441.5C1618.5 1453.1 1609.32 1462.5 1598 1462.5 1586.68 1462.5 1577.5 1453.1 1577.5 1441.5 1577.5 1429.9 1586.68 1420.5 1598 1420.5 1609.32 1420.5 1618.5 1429.9 1618.5 1441.5Z" stroke="#C00000" stroke-width="4.58333" stroke-miterlimit="8" fill="#C00000" fill-rule="evenodd"/><path d="M1618.5 1331.5C1618.5 1343.1 1609.32 1352.5 1598 1352.5 1586.68 1352.5 1577.5 1343.1 1577.5 1331.5 1577.5 1319.9 1586.68 1310.5 1598 1310.5 1609.32 1310.5 1618.5 1319.9 1618.5 1331.5Z" stroke="#C00000" stroke-width="4.58333" stroke-miterlimit="8" fill="#C00000" fill-rule="evenodd"/><path d="M1618.5 1661.5C1618.5 1673.1 1609.32 1682.5 1598 1682.5 1586.68 1682.5 1577.5 1673.1 1577.5 1661.5 1577.5 1649.9 1586.68 1640.5 1598 1640.5 1609.32 1640.5 1618.5 1649.9 1618.5 1661.5Z" stroke="#C00000" stroke-width="4.58333" stroke-miterlimit="8" fill="#C00000" fill-rule="evenodd"/><path d="M1618.5 1551.5C1618.5 1563.1 1609.32 1572.5 1598 1572.5 1586.68 1572.5 1577.5 1563.1 1577.5 1551.5 1577.5 1539.9 1586.68 1530.5 1598 1530.5 1609.32 1530.5 1618.5 1539.9 1618.5 1551.5Z" stroke="#C00000" stroke-width="4.58333" stroke-miterlimit="8" fill="#C00000" fill-rule="evenodd"/><path d="M1481.5 1441.5C1481.5 1453.1 1472.1 1462.5 1460.5 1462.5 1448.9 1462.5 1439.5 1453.1 1439.5 1441.5 1439.5 1429.9 1448.9 1420.5 1460.5 1420.5 1472.1 1420.5 1481.5 1429.9 1481.5 1441.5Z" stroke="#00B050" stroke-width="4.58333" stroke-miterlimit="8" fill="#00B050" fill-rule="evenodd"/><path d="M1481.5 1331.5C1481.5 1343.1 1472.1 1352.5 1460.5 1352.5 1448.9 1352.5 1439.5 1343.1 1439.5 1331.5 1439.5 1319.9 1448.9 1310.5 1460.5 1310.5 1472.1 1310.5 1481.5 1319.9 1481.5 1331.5Z" stroke="#00B050" stroke-width="4.58333" stroke-miterlimit="8" fill="#00B050" fill-rule="evenodd"/><path d="M1481.5 1661.5C1481.5 1673.1 1472.1 1682.5 1460.5 1682.5 1448.9 1682.5 1439.5 1673.1 1439.5 1661.5 1439.5 1649.9 1448.9 1640.5 1460.5 1640.5 1472.1 1640.5 1481.5 1649.9 1481.5 1661.5Z" stroke="#00B050" stroke-width="4.58333" stroke-miterlimit="8" fill="#00B050" fill-rule="evenodd"/><path d="M1481.5 1551.5C1481.5 1563.1 1472.1 1572.5 1460.5 1572.5 1448.9 1572.5 1439.5 1563.1 1439.5 1551.5 1439.5 1539.9 1448.9 1530.5 1460.5 1530.5 1472.1 1530.5 1481.5 1539.9 1481.5 1551.5Z" stroke="#00B050" stroke-width="4.58333" stroke-miterlimit="8" fill="#00B050" fill-rule="evenodd"/><path d="M476.5 1660C476.5 1648.68 485.678 1639.5 497 1639.5 508.322 1639.5 517.5 1648.68 517.5 1660 517.5 1671.32 508.322 1680.5 497 1680.5 485.678 1680.5 476.5 1671.32 476.5 1660Z" stroke="#C00000" stroke-width="4.58333" stroke-miterlimit="8" fill="#C00000" fill-rule="evenodd"/><path d="M1309.5 1664.5C1309.5 1652.9 1318.9 1643.5 1330.5 1643.5 1342.1 1643.5 1351.5 1652.9 1351.5 1664.5 1351.5 1676.1 1342.1 1685.5 1330.5 1685.5 1318.9 1685.5 1309.5 1676.1 1309.5 1664.5Z" stroke="#C00000" stroke-width="4.58333" stroke-miterlimit="8" fill="#C00000" fill-rule="evenodd"/><text font-family="Calibri,Calibri_MSFontService,sans-serif" font-weight="400" font-size="55" transform="matrix(1 0 0 1 468.977 1622)">9V</text><text font-family="Calibri,Calibri_MSFontService,sans-serif" font-weight="400" font-size="55" transform="matrix(1 0 0 1 1302.8 1624)">9V</text><text font-family="Calibri,Calibri_MSFontService,sans-serif" font-weight="400" font-size="55" transform="matrix(1 0 0 1 265.026 896)">A1</text><text font-family="Calibri,Calibri_MSFontService,sans-serif" font-weight="400" font-size="55" transform="matrix(1 0 0 1 264.57 1006)">A2</text><text font-family="Calibri,Calibri_MSFontService,sans-serif" font-weight="400" font-size="55" transform="matrix(1 0 0 1 264.57 1116)">A3</text><text font-family="Calibri,Calibri_MSFontService,sans-serif" font-weight="400" font-size="55" transform="matrix(1 0 0 1 265.11 1227)">A4</text><text font-family="Calibri,Calibri_MSFontService,sans-serif" font-weight="400" font-size="55" transform="matrix(1 0 0 1 267.879 1342)">A5</text><text font-family="Calibri,Calibri_MSFontService,sans-serif" font-weight="400" font-size="55" transform="matrix(1 0 0 1 265.129 1453)">A6</text><text font-family="Calibri,Calibri_MSFontService,sans-serif" font-weight="400" font-size="55" transform="matrix(1 0 0 1 267.879 1565)">A7</text><text font-family="Calibri,Calibri_MSFontService,sans-serif" font-weight="400" font-size="55" transform="matrix(1 0 0 1 265.026 1675)">A8</text><text font-family="Calibri,Calibri_MSFontService,sans-serif" font-weight="400" font-size="55" transform="matrix(1 0 0 1 1487.7 903)">M1</text><text font-family="Calibri,Calibri_MSFontService,sans-serif" font-weight="400" font-size="55" transform="matrix(1 0 0 1 1487.7 1009)">M2</text><text font-family="Calibri,Calibri_MSFontService,sans-serif" font-weight="400" font-size="55" transform="matrix(1 0 0 1 1488.14 1122)">M3</text><text font-family="Calibri,Calibri_MSFontService,sans-serif" font-weight="400" font-size="55" transform="matrix(1 0 0 1 1488.63 1230)">M4</text><text font-family="Calibri,Calibri_MSFontService,sans-serif" font-weight="400" font-size="55" transform="matrix(1 0 0 1 1498.31 1348)">C1</text><text font-family="Calibri,Calibri_MSFontService,sans-serif" font-weight="400" font-size="55" transform="matrix(1 0 0 1 1498.31 1455)">C2</text><text font-family="Calibri,Calibri_MSFontService,sans-serif" font-weight="400" font-size="55" transform="matrix(1 0 0 1 1503.9 1568)">C3</text><text font-family="Calibri,Calibri_MSFontService,sans-serif" font-weight="400" font-size="55" transform="matrix(1 0 0 1 1503.9 1676)">C4</text><rect x="603.5" y="706.5" width="596" height="1024" stroke="#A6A6A6" stroke-width="4.58333" stroke-miterlimit="8" fill="#A6A6A6" fill-opacity="0.74902"/><rect x="1041.5" y="1064.5" width="156" height="260" stroke="#767171" stroke-width="4.58333" stroke-miterlimit="8" fill="#00B050"/><path d="M1130 1291C1130 1305.36 1118.36 1317 1104 1317 1089.64 1317 1078 1305.36 1078 1291 1078 1276.64 1089.64 1265 1104 1265 1118.36 1265 1130 1276.64 1130 1291Z" fill="#AFABAB" fill-rule="evenodd"/><path d="M1130 1228C1130 1242.36 1118.36 1254 1104 1254 1089.64 1254 1078 1242.36 1078 1228 1078 1213.64 1089.64 1202 1104 1202 1118.36 1202 1130 1213.64 1130 1228Z" fill="#AFABAB" fill-rule="evenodd"/><path d="M1130 1164C1130 1178.36 1118.36 1190 1104 1190 1089.64 1190 1078 1178.36 1078 1164 1078 1149.64 1089.64 1138 1104 1138 1118.36 1138 1130 1149.64 1130 1164Z" fill="#AFABAB" fill-rule="evenodd"/><path d="M1130 1098C1130 1112.36 1118.36 1124 1104 1124 1089.64 1124 1078 1112.36 1078 1098 1078 1083.64 1089.64 1072 1104 1072 1118.36 1072 1130 1083.64 1130 1098Z" fill="#AFABAB" fill-rule="evenodd"/><rect x="1165.5" y="1259.5" width="32" height="65" stroke="#767171" stroke-width="4.58333" stroke-miterlimit="8" fill="#00B050"/><rect x="1165.5" y="1064.5" width="32" height="65" stroke="#767171" stroke-width="4.58333" stroke-miterlimit="8" fill="#00B050"/><rect x="1165.5" y="1129.5" width="32" height="65" stroke="#767171" stroke-width="4.58333" stroke-miterlimit="8" fill="#00B050"/><rect x="1165.5" y="1194.5" width="32" height="65" stroke="#767171" stroke-width="4.58333" stroke-miterlimit="8" fill="#00B050"/><path d="M0 0 36.7475 36.7475" stroke="#BFBFBF" stroke-width="9.16667" stroke-miterlimit="8" fill="none" fill-rule="evenodd" transform="matrix(-1 1.22465e-16 1.22465e-16 1 1122.25 1273.5)"/><path d="M1122.25 1246.25 1085.5 1209.5" stroke="#BFBFBF" stroke-width="9.16667" stroke-miterlimit="8" fill="none" fill-rule="evenodd"/><path d="M1130.47 1164.5 1078.5 1164.5" stroke="#BFBFBF" stroke-width="9.16667" stroke-miterlimit="8" fill="none" fill-rule="evenodd"/><path d="M0 0 0.000360892 51.9685" stroke="#BFBFBF" stroke-width="9.16667" stroke-miterlimit="8" fill="none" fill-rule="evenodd" transform="matrix(-1 1.22465e-16 1.22465e-16 1 1104.5 1072.5)"/><rect x="948" y="1154" width="65" height="130" fill="#595959"/><rect x="959" y="1235" width="39.9999" height="33" fill="#FFF2CC"/><rect x="959" y="1170" width="39.9999" height="33" fill="#FFF2CC"/><text font-family="Calibri,Calibri_MSFontService,sans-serif" font-weight="400" font-size="55" transform="matrix(1 0 0 1 1219.63 1310)">RS485B</text><text font-family="Calibri,Calibri_MSFontService,sans-serif" font-weight="400" font-size="55" transform="matrix(1 0 0 1 1217.32 1118)">RS485A</text><text font-family="Calibri,Calibri_MSFontService,sans-serif" font-weight="400" font-size="55" transform="matrix(1 0 0 1 1219.63 1182)">RS485B</text><text font-family="Calibri,Calibri_MSFontService,sans-serif" font-weight="400" font-size="55" transform="matrix(1 0 0 1 1217.32 1248)">RS485A</text><text font-family="Calibri,Calibri_MSFontService,sans-serif" font-weight="400" font-size="55" transform="matrix(1 0 0 1 1216.58 1386)">9V</text><path d="M874.5 1587C874.5 1569.05 889.051 1554.5 907 1554.5 924.949 1554.5 939.5 1569.05 939.5 1587 939.5 1604.95 924.949 1619.5 907 1619.5 889.051 1619.5 874.5 1604.95 874.5 1587Z" stroke="#767171" stroke-width="4.58333" stroke-miterlimit="8" fill="#767171" fill-rule="evenodd"/><path d="M661.5 1586.5C661.5 1550.6 690.601 1521.5 726.5 1521.5 762.399 1521.5 791.5 1550.6 791.5 1586.5 791.5 1622.4 762.399 1651.5 726.5 1651.5 690.601 1651.5 661.5 1622.4 661.5 1586.5Z" stroke="#767171" stroke-width="4.58333" stroke-miterlimit="8" fill="#FF0000" fill-rule="evenodd"/><path d="M1023.5 1591.5C1023.5 1555.6 1052.6 1526.5 1088.5 1526.5 1124.4 1526.5 1153.5 1555.6 1153.5 1591.5 1153.5 1627.4 1124.4 1656.5 1088.5 1656.5 1052.6 1656.5 1023.5 1627.4 1023.5 1591.5Z" stroke="#767171" stroke-width="4.58333" stroke-miterlimit="8" fill="#FF0000" fill-rule="evenodd"/><text font-family="Calibri,Calibri_MSFontService,sans-serif" font-weight="400" font-size="55" transform="matrix(1 0 0 1 840.5 1532)">RESET</text><text font-family="Calibri,Calibri_MSFontService,sans-serif" font-weight="400" font-size="55" transform="matrix(1 0 0 1 1032.83 1608)">LED2</text><text font-family="Calibri,Calibri_MSFontService,sans-serif" font-weight="400" font-size="55" transform="matrix(1 0 0 1 667.819 1606)">LED1</text><text font-family="Calibri,Calibri_MSFontService,sans-serif" font-weight="400" font-size="55" transform="matrix(-1.83697e-16 -1 1 -1.83697e-16 930.791 1289)">RS485</text><path d="M800 761.5C800 758.462 802.462 756 805.5 756L827.5 756C830.537 756 833 758.462 833 761.5L833 1334.5C833 1337.54 830.537 1340 827.5 1340L805.5 1340C802.462 1340 800 1337.54 800 1334.5Z" fill="#D9D9D9" fill-rule="evenodd"/><path d="M733 761.5C733 758.462 735.462 756 738.5 756L760.5 756C763.537 756 766 758.462 766 761.5L766 1334.5C766 1337.54 763.537 1340 760.5 1340L738.5 1340C735.462 1340 733 1337.54 733 1334.5Z" fill="#D9D9D9" fill-rule="evenodd"/><path d="M1036 787.334C1036 770.029 1050.03 756 1067.33 756L1192.67 756C1209.97 756 1224 770.029 1224 787.334L1224 932.666C1224 949.971 1209.97 964 1192.67 964L1067.33 964C1050.03 964 1036 949.971 1036 932.666Z" fill="#767171" fill-rule="evenodd"/><text font-family="Calibri,Calibri_MSFontService,sans-serif" font-weight="400" font-size="55" transform="matrix(1 0 0 1 1086.33 877)">USB</text><rect x="1042.5" y="1339.5" width="156" height="130" stroke="#767171" stroke-width="4.58333" stroke-miterlimit="8" fill="#00B050"/><path d="M1131 1436C1131 1450.36 1119.36 1462 1105 1462 1090.64 1462 1079 1450.36 1079 1436 1079 1421.64 1090.64 1410 1105 1410 1119.36 1410 1131 1421.64 1131 1436Z" fill="#92D050" fill-rule="evenodd"/><path d="M1131 1373C1131 1387.36 1119.36 1399 1105 1399 1090.64 1399 1079 1387.36 1079 1373 1079 1358.64 1090.64 1347 1105 1347 1119.36 1347 1131 1358.64 1131 1373Z" fill="#FF0000" fill-rule="evenodd"/><rect x="1166.5" y="1404.5" width="33" height="65" stroke="#767171" stroke-width="4.58333" stroke-miterlimit="8" fill="#00B050"/><rect x="1166.5" y="1339.5" width="33" height="65" stroke="#767171" stroke-width="4.58333" stroke-miterlimit="8" fill="#00B050"/><path d="M944 761.333C944 758.388 946.388 756 949.333 756L970.667 756C973.612 756 976 758.388 976 761.333L976 1119.67C976 1122.61 973.612 1125 970.667 1125L949.333 1125C946.388 1125 944 1122.61 944 1119.67Z" fill="#D9D9D9" fill-rule="evenodd"/><path d="M877 761.5C877 758.462 879.462 756 882.5 756L904.5 756C907.537 756 910 758.462 910 761.5L910 1119.5C910 1122.54 907.537 1125 904.5 1125L882.5 1125C879.462 1125 877 1122.54 877 1119.5Z" fill="#D9D9D9" fill-rule="evenodd"/><text font-family="Calibri,Calibri_MSFontService,sans-serif" font-weight="400" font-size="55" transform="matrix(1 0 0 1 1216.58 1444)">GND</text><text font-family="Calibri,Calibri_MSFontService,sans-serif" font-weight="400" font-size="55" transform="matrix(1 0 0 1 1345.7 371)">9V IN</text></g></svg>